<svg width="63" height="63" viewBox="0 0 63 63" fill="none" xmlns="http://www.w3.org/2000/svg">
<path d="M40.3168 57.0969C45.6275 55.4443 52.5 50.5436 52.5 39.3756C52.5 27.2431 39.2278 14.212 30.3784 7.47083C28.9172 6.35773 26.8163 7.15923 26.1346 8.86494C21.8145 19.6744 10.5 31.1161 10.5 39.3756C10.5 47.4701 16.0468 52.4446 20.7263 54.9003M40.3168 57.0969C40.0958 57.1657 39.8896 57.1707 39.7059 57.1271M40.3168 57.0969C40.1121 57.108 39.9084 57.118 39.7059 57.1271M20.7263 54.9003C20.8254 54.9385 20.9325 54.9781 21.0473 55.0187M20.7263 54.9003C20.8345 54.9571 20.942 54.9959 21.0473 55.0187M21.0473 55.0187C22.041 55.2339 22.8434 54.0212 22.3127 52.997C21.2457 50.938 20.3 48.3789 20.3 45.9381C20.3 42.338 23.0429 39.4451 25.0021 37.59C25.5046 37.1142 26.292 37.1216 26.7277 37.6593C27.5365 38.6575 28.3453 39.9211 29.1541 40.944C29.6288 41.5444 30.5133 41.4911 30.9299 40.8491C33.5185 36.8602 34.1188 31.7706 34.258 27.9664C34.3 26.8182 35.6439 26.2542 36.4143 27.1066C39.7843 30.8351 44.1 36.8802 44.1 42.0006C44.1 46.7672 41.4286 51.8343 39.1175 55.1555C38.5723 55.9391 38.948 56.9472 39.7059 57.1271" stroke="#424242" stroke-width="2"/>
<path opacity="0.5" d="M20.3008 45.9386C20.3008 48.3795 21.2465 50.9386 22.3135 52.9976C22.8442 54.0217 22.0418 55.2345 21.0481 55.0193C22.3131 56.4375 30.6508 57.5335 39.7066 57.1277C38.9488 56.9478 38.5731 55.9396 39.1183 55.1561C41.4293 51.8349 44.1008 46.7678 44.1008 42.0011C44.1008 36.8808 39.7851 30.8357 36.4151 27.1071C35.6446 26.2547 34.3008 26.8187 34.2588 27.967C34.1195 31.7711 33.5193 36.8608 30.9307 40.8497C30.514 41.4917 29.6296 41.5449 29.1548 40.9446C28.346 39.9217 27.5372 38.6581 26.7284 37.6599C26.2928 37.1222 25.5054 37.1148 25.0029 37.5906C23.0437 39.4457 20.3008 42.3386 20.3008 45.9386Z" stroke="#424242" stroke-width="2"/>
</svg>
