<svg width="872" height="1088" viewBox="0 0 872 1088" fill="none" xmlns="http://www.w3.org/2000/svg">
<path fill-rule="evenodd" clip-rule="evenodd" d="M629.318 1087.64C976.881 1087.64 1258.64 805.881 1258.64 458.318C1258.64 110.755 976.881 -171 629.318 -171C281.755 -171 0 110.755 0 458.318C0 805.881 281.755 1087.64 629.318 1087.64ZM629.318 907.832C877.577 907.832 1078.83 706.578 1078.83 458.319C1078.83 210.06 877.577 8.80617 629.318 8.80617C381.058 8.80617 179.805 210.06 179.805 458.319C179.805 706.578 381.058 907.832 629.318 907.832Z" fill="#E6EAF4" fill-opacity="0.25"/>
<path fill-rule="evenodd" clip-rule="evenodd" d="M630.138 846.726C848.722 846.726 1025.92 669.528 1025.92 450.944C1025.92 232.359 848.722 55.1613 630.138 55.1613C411.553 55.1613 234.355 232.359 234.355 450.944C234.355 669.528 411.553 846.726 630.138 846.726ZM630.138 733.645C786.27 733.645 912.839 607.075 912.839 450.943C912.839 294.812 786.27 168.242 630.138 168.242C474.006 168.242 347.436 294.812 347.436 450.943C347.436 607.075 474.006 733.645 630.138 733.645Z" fill="#E6EAF4" fill-opacity="0.4"/>
<path fill-rule="evenodd" clip-rule="evenodd" d="M630.138 692.674C763.642 692.674 871.868 584.448 871.868 450.944C871.868 317.44 763.642 209.213 630.138 209.213C496.634 209.213 388.407 317.44 388.407 450.944C388.407 584.448 496.634 692.674 630.138 692.674ZM630.137 623.608C725.497 623.608 802.802 546.303 802.802 450.943C802.802 355.583 725.497 278.279 630.137 278.279C534.777 278.279 457.473 355.583 457.473 450.943C457.473 546.303 534.777 623.608 630.137 623.608Z" fill="#E6EAF4" fill-opacity="0.6"/>
<circle cx="630.957" cy="451.763" r="122.914" fill="#E6EAF4" fill-opacity="0.8"/>
</svg>
