<svg width="80" height="74" viewBox="0 0 80 74" fill="none" xmlns="http://www.w3.org/2000/svg">
<g clip-path="url(#clip0_6263_82287)">
<path d="M34.1889 23.9459C33.5215 26.7777 33.5135 30.7193 33.5135 30.7193L35.1959 31.3959C35.1959 31.3959 36.785 37.8674 26.752 35.8789C24.8034 35.4866 19.1582 31.2626 19.1582 31.2626L23.6215 30.0036C23.6215 30.0036 24.0486 23.5968 24.2174 20.4141C26.5653 21.5024 31.3742 23.0713 34.1889 23.9459Z" fill="white"/>
<path d="M30.1762 36.4348C29.0169 36.4184 27.862 36.2903 26.7279 36.0524C24.7594 35.6602 19.293 31.5773 19.0606 31.4028C19.0345 31.3833 19.0143 31.357 19.0024 31.3269C18.9904 31.2968 18.9872 31.264 18.9931 31.2322C18.9991 31.2001 19.0139 31.1703 19.036 31.1461C19.0581 31.1218 19.0866 31.1041 19.1182 31.0949L23.4624 29.8692C23.522 28.9652 23.8974 23.3076 24.0583 20.4052C24.0605 20.3768 24.0693 20.3492 24.0841 20.3247C24.099 20.3002 24.1193 20.2794 24.1437 20.264C24.1695 20.251 24.1981 20.2441 24.2271 20.2441C24.2561 20.2441 24.2847 20.251 24.3105 20.264C26.5372 21.2897 31.0641 22.8016 34.2562 23.7939C34.2967 23.8069 34.3313 23.8339 34.3535 23.8698C34.3757 23.9058 34.3842 23.9484 34.3773 23.99C33.7814 26.4982 33.7139 29.932 33.7059 30.6085L35.2791 31.24C35.3047 31.2507 35.3275 31.2671 35.3458 31.2878C35.364 31.3085 35.3772 31.3331 35.3844 31.3596C35.4062 31.4498 35.9048 33.558 34.4548 35.0503C33.5411 35.97 32.1129 36.4348 30.1762 36.4348ZM19.5493 31.3361C20.7172 32.1931 25.1468 35.3876 26.7875 35.7112C30.4126 36.427 32.9015 36.123 34.1807 34.8071C35.3407 33.6168 35.1143 31.9224 35.0408 31.5263L33.4517 30.8851C33.4189 30.8718 33.3908 30.8493 33.371 30.8203C33.3512 30.7914 33.3406 30.7572 33.3405 30.7223C33.3405 30.6831 33.3563 26.8728 33.986 24.0665C30.8992 23.1115 26.6584 21.6995 24.382 20.6798C24.2053 23.9057 23.802 29.9536 23.7981 30.0143C23.7961 30.0503 23.7828 30.0848 23.76 30.1129C23.7372 30.1411 23.7061 30.1615 23.6709 30.1712L19.5493 31.3361Z" fill="black"/>
<path d="M29.2789 0.181431C24.7858 0.00689849 20.4119 2.87198 20.7535 5.18994C18.6083 4.56633 16.1492 8.62765 16.2346 10.5318C16.3458 12.9753 21.1687 21.0332 22.1936 22.3157C22.5904 22.8793 23.1826 23.2797 23.8582 23.4414C23.8045 22.7687 24.4541 22.3393 24.472 21.6607C24.4859 20.8273 23.3477 19.3722 24.2415 19.3938C28.4903 19.4958 27.9461 20.4469 36.0126 12.6949C37.0415 11.7143 37.7169 9.3199 37.9433 7.5177C38.1678 5.76452 36.8945 0.475588 29.2789 0.181431Z" fill="black"/>
<path d="M23.8615 23.6168C23.845 23.6197 23.8282 23.6197 23.8118 23.6168C23.1015 23.4487 22.4778 23.0303 22.0579 22.4402C20.9932 21.1126 16.1684 13.0154 16.0571 10.5543C15.9916 9.10511 17.2628 6.70479 18.6711 5.61445C19.3147 5.11634 19.9623 4.90259 20.5562 4.98691C20.5443 4.31624 20.8661 3.60242 21.4997 2.90821C22.8524 1.42566 25.8697 -0.10788 29.2862 0.0235104C32.4464 0.145095 34.9413 1.1668 36.4966 2.97684C38.0161 4.74178 38.2247 6.74401 38.1214 7.55588C37.8811 9.4679 37.1759 11.8427 36.1351 12.837C28.873 19.8124 28.5492 19.7967 25.4446 19.6359C25.089 19.6163 24.6858 19.5967 24.2349 19.5849C24.1594 19.5849 24.1038 19.5849 24.0899 19.6163C24.0124 19.7261 24.1972 20.187 24.3183 20.4909C24.4832 20.9008 24.652 21.3244 24.6461 21.6813C24.6178 22.0189 24.5022 22.3437 24.3104 22.6245C24.1353 22.8634 24.0382 23.1494 24.0323 23.4443C24.035 23.4725 24.0304 23.501 24.0189 23.5271C24.0074 23.5531 23.9895 23.5759 23.9667 23.5933C23.935 23.6118 23.8982 23.62 23.8615 23.6168ZM20.3019 5.30264C19.7577 5.30264 19.2492 5.5968 18.8896 5.87527C17.4515 6.9911 16.3571 9.3267 16.4107 10.521C16.5199 12.9193 21.2832 20.8929 22.3359 22.2049C22.6648 22.6753 23.1417 23.0255 23.6926 23.2011C23.7461 22.927 23.8534 22.6658 24.0085 22.4324C24.1706 22.1994 24.2697 21.9294 24.2965 21.6479C24.2965 21.3616 24.1396 20.9537 23.9945 20.5949C23.7959 20.0909 23.6191 19.6536 23.7959 19.3908C23.8477 19.3255 23.9157 19.2746 23.9933 19.243C24.071 19.2114 24.1555 19.2002 24.2389 19.2104C24.6957 19.2104 25.1009 19.2417 25.4585 19.2614C28.4241 19.4143 28.734 19.43 35.8828 12.5605C36.8561 11.627 37.5275 9.33847 37.7599 7.48724C37.8572 6.72832 37.6566 4.84964 36.2165 3.17295C34.7049 1.40801 32.365 0.462784 29.2643 0.343161C25.963 0.227459 23.063 1.69628 21.7619 3.12588C21.1223 3.82794 20.8323 4.53391 20.9256 5.16537C20.9298 5.19465 20.9266 5.22449 20.9162 5.25221C20.9058 5.27994 20.8885 5.30468 20.8661 5.32421C20.8437 5.34319 20.817 5.35636 20.7882 5.36253C20.7594 5.36869 20.7295 5.36766 20.7012 5.35951C20.5715 5.3219 20.4371 5.30275 20.3019 5.30264Z" fill="black"/>
<path d="M36.2764 11.436C36.2764 11.389 34.7389 11.5811 33.4438 9.76325C33.1916 10.7281 33.0565 11.7243 31.0602 11.64C30.0869 11.5949 28.6627 10.0319 28.3032 9.09061C28.3032 9.09061 30.4306 8.58663 21.1841 12.6009C21.196 12.797 21.206 12.9715 21.2099 13.1461C21.2209 14.3026 21.3587 15.4546 21.6211 16.5818C20.4035 15.8464 19.5235 16.1229 18.9475 16.8956C18.6806 17.2661 18.5726 17.7257 18.647 18.1744C18.7214 18.6231 18.9721 19.0248 19.3448 19.292C20.1036 19.8626 21.3013 19.947 22.2885 19.59C22.803 21.2471 23.6949 24.5868 25.1072 25.9183C26.6108 27.3322 29.0044 28.0343 31.3324 27.7401C33.6604 27.446 35.8553 26.1713 37.0431 24.4064C38.3918 22.4139 38.4077 20.0293 37.9528 17.8624C37.498 15.6954 36.6041 13.6265 36.2764 11.436Z" fill="white"/>
<path d="M30.2663 27.9868C28.2462 27.9868 26.2937 27.2847 24.9787 26.0493C23.6637 24.8138 22.8374 22.0448 22.2832 20.2054L22.164 19.8132C21.1252 20.1309 19.9671 19.9838 19.2302 19.421C18.8233 19.1274 18.5501 18.6872 18.4698 18.196C18.3895 17.7048 18.5085 17.2022 18.8012 16.7971C19.4328 15.9519 20.3287 15.7636 21.3556 16.246C21.1539 15.2427 21.0456 14.2233 21.0318 13.2005V13.1574C21.0318 13.0005 21.0179 12.824 21.006 12.6161C21.0035 12.5804 21.0122 12.5448 21.0311 12.5143C21.05 12.4837 21.078 12.4597 21.1113 12.4455C26.0771 10.2884 27.6523 9.48043 28.1449 9.18039C28.1449 9.18039 28.1449 9.16666 28.1449 9.15882C28.1357 9.13561 28.1316 9.11071 28.133 9.08581C28.1343 9.06092 28.1411 9.03659 28.1527 9.01448C28.1644 8.99237 28.1807 8.97298 28.2006 8.95763C28.2205 8.94227 28.2435 8.9313 28.2681 8.92545C28.3555 8.90584 28.6197 8.84309 28.6872 9.04116C28.715 9.1196 28.723 9.18431 28.5978 9.29609C29.0686 10.1884 30.2822 11.4297 31.0748 11.467C32.8168 11.5493 33.0135 10.7786 33.2399 9.88637C33.2538 9.83146 33.2677 9.77655 33.2836 9.72164C33.2917 9.68932 33.3091 9.66003 33.3338 9.63738C33.3585 9.61473 33.3894 9.59971 33.4226 9.59417C33.4559 9.58802 33.4902 9.59141 33.5215 9.60392C33.5528 9.61643 33.5799 9.63755 33.5994 9.66477C34.3026 10.6453 35.1885 11.1865 36.2075 11.2513C36.3009 11.2513 36.4399 11.265 36.4618 11.4121C36.6734 12.6381 36.9728 13.8478 37.3576 15.0321C37.6337 15.946 37.9177 16.8912 38.1184 17.8443C38.6825 20.525 38.3686 22.7704 37.1828 24.5216C35.9652 26.3219 33.7285 27.626 31.3469 27.926C30.9884 27.9687 30.6275 27.989 30.2663 27.9868ZM22.2812 19.421C22.3087 19.4209 22.3359 19.427 22.3607 19.4386C22.3822 19.4492 22.4013 19.464 22.4167 19.4823C22.4321 19.5005 22.4435 19.5217 22.4501 19.5445C22.5037 19.7151 22.5613 19.9034 22.6229 20.1054C23.1334 21.7997 23.9895 24.6354 25.223 25.7924C26.6909 27.1749 29.0209 27.8554 31.3012 27.5671C33.5815 27.2789 35.7248 26.0336 36.8888 24.3157C38.019 22.6449 38.315 20.4878 37.7708 17.9031C37.5721 16.9657 37.292 16.0284 37.0179 15.1204C36.6406 13.9646 36.3413 12.7854 36.1221 11.5905C35.115 11.5121 34.243 11.0297 33.5259 10.155C33.2975 11.012 32.93 11.8984 31.049 11.8102C30.1154 11.767 28.8322 10.4747 28.2959 9.49416C28.0973 9.61378 27.7953 9.77263 27.3583 9.9903C26.1665 10.5786 24.1464 11.5023 21.3636 12.7103C21.3636 12.8711 21.3794 13.0123 21.3834 13.1397V13.1848C21.3939 14.3135 21.5271 15.4377 21.7807 16.5382C21.7895 16.5716 21.7879 16.6068 21.7762 16.6393C21.7646 16.6718 21.7433 16.7002 21.7151 16.7206C21.6858 16.7402 21.6512 16.7508 21.6158 16.7508C21.5804 16.7508 21.5458 16.7402 21.5165 16.7206C20.4935 16.1029 19.6732 16.1931 19.0793 16.9873C18.959 17.152 18.8728 17.3385 18.8256 17.5362C18.7785 17.7339 18.7713 17.9387 18.8046 18.1391C18.8378 18.3395 18.9107 18.5315 19.0192 18.704C19.1277 18.8765 19.2696 19.0262 19.4368 19.1445C20.1241 19.6602 21.2384 19.77 22.2177 19.417C22.2389 19.4143 22.2605 19.4156 22.2812 19.421Z" fill="black"/>
<path d="M34.674 14.9058C34.6755 14.8005 34.6449 14.6972 34.5861 14.6092C34.5274 14.5213 34.4432 14.4528 34.3446 14.4127C34.2459 14.3726 34.1373 14.3626 34.0329 14.3841C33.9284 14.4057 33.833 14.4577 33.7588 14.5335C33.6847 14.6092 33.6353 14.7053 33.6172 14.8091C33.599 14.9128 33.6128 15.0196 33.6569 15.1156C33.7009 15.2115 33.7731 15.2922 33.8642 15.3471C33.9553 15.402 34.0609 15.4287 34.1675 15.4236C34.2352 15.4225 34.3021 15.4083 34.3642 15.3817C34.4264 15.3551 34.4826 15.3167 34.5297 15.2686C34.5767 15.2205 34.6137 15.1637 34.6385 15.1014C34.6632 15.0392 34.6753 14.9727 34.674 14.9058Z" fill="black"/>
<path d="M27.42 16.3417C27.4227 16.2365 27.3934 16.1329 27.3357 16.0443C27.2781 15.9557 27.1949 15.8863 27.0969 15.845C26.9988 15.8036 26.8904 15.7923 26.7858 15.8125C26.6811 15.8327 26.585 15.8834 26.5099 15.9581C26.4348 16.0328 26.3842 16.1281 26.3646 16.2315C26.3449 16.335 26.3572 16.4419 26.3999 16.5384C26.4425 16.6349 26.5135 16.7165 26.6036 16.7727C26.6938 16.8289 26.7989 16.8571 26.9055 16.8536C26.9733 16.8533 27.0404 16.8399 27.103 16.814C27.1656 16.7881 27.2223 16.7504 27.2701 16.7028C27.3179 16.6553 27.3557 16.599 27.3814 16.537C27.4071 16.475 27.4202 16.4087 27.42 16.3417Z" fill="black"/>
<path d="M30.4367 24.5294C29.7656 24.533 29.1158 24.2969 28.6072 23.8646C28.5888 23.8499 28.5736 23.8316 28.5625 23.8108C28.5514 23.7901 28.5447 23.7674 28.5426 23.7441C28.5406 23.7207 28.5434 23.6972 28.5508 23.6749C28.5581 23.6527 28.57 23.6321 28.5856 23.6144C28.6012 23.5968 28.6203 23.5824 28.6416 23.5722C28.663 23.562 28.6862 23.5561 28.7099 23.5549C28.7336 23.5537 28.7573 23.5573 28.7796 23.5654C28.8019 23.5734 28.8223 23.5858 28.8397 23.6019C29.182 23.8902 29.5984 24.0795 30.043 24.1487C30.4875 24.218 30.9427 24.1644 31.3583 23.9941C31.4008 23.9807 31.4468 23.9834 31.4873 24.0018C31.5278 24.0202 31.5599 24.0528 31.5773 24.0933C31.5947 24.1338 31.5961 24.1792 31.5813 24.2207C31.5666 24.2622 31.5366 24.2968 31.4974 24.3176C31.1616 24.4572 30.801 24.5292 30.4367 24.5294Z" fill="black"/>
<path d="M31.333 21.6327H31.3132C31.0499 21.6362 30.7889 21.5858 30.5464 21.4845C30.304 21.3832 30.0855 21.2334 29.9048 21.0444C29.8878 21.0277 29.8743 21.0077 29.8653 20.9857C29.8564 20.9636 29.852 20.94 29.8526 20.9163C29.8532 20.8926 29.8586 20.8692 29.8687 20.8476C29.8787 20.826 29.8931 20.8067 29.9109 20.7908C29.9288 20.7749 29.9498 20.7628 29.9725 20.7552C29.9953 20.7475 30.0194 20.7446 30.0434 20.7465C30.0674 20.7484 30.0907 20.7551 30.112 20.7662C30.1332 20.7773 30.152 20.7925 30.167 20.811C30.3171 20.9611 30.4963 21.0799 30.6939 21.1601C30.8915 21.2402 31.1035 21.2803 31.3171 21.2777C31.765 21.2653 32.2031 21.1462 32.5944 20.9306C32.759 20.8567 32.9023 20.7435 33.0115 20.6012C33.0703 20.4934 33.1035 20.3739 33.1087 20.2516C33.1139 20.1293 33.0908 20.0074 33.0413 19.8952C32.9453 19.6714 32.8219 19.46 32.6738 19.2657L32.6023 19.1657C31.7516 17.9274 31.1992 16.5134 30.9874 15.0318C30.9841 15.009 30.9855 14.9858 30.9913 14.9635C30.9971 14.9412 31.0073 14.9203 31.0213 14.9019C31.0353 14.8835 31.0529 14.868 31.073 14.8563C31.0931 14.8446 31.1153 14.837 31.1384 14.8338C31.1614 14.8305 31.1849 14.8318 31.2075 14.8376C31.2301 14.8433 31.2513 14.8534 31.2699 14.8673C31.2886 14.8811 31.3042 14.8984 31.3161 14.9182C31.3279 14.9381 31.3357 14.96 31.339 14.9828C31.5424 16.4112 32.0751 17.7745 32.8963 18.9676L32.9658 19.0676C33.1307 19.2861 33.2675 19.5239 33.373 19.7756C33.4429 19.9382 33.4735 20.1146 33.4625 20.2909C33.4515 20.4672 33.3991 20.6385 33.3094 20.7914C33.1685 20.9851 32.9788 21.1392 32.7592 21.2385C32.324 21.4841 31.8341 21.6195 31.333 21.6327Z" fill="black"/>
<path d="M21.8971 17.8599C21.8585 17.8597 21.821 17.8472 21.7902 17.8242C21.7594 17.8012 21.737 17.769 21.7263 17.7324C21.5574 17.1441 21.4819 16.8245 21.3409 16.2518C21.3354 16.2294 21.3345 16.2062 21.3381 16.1834C21.3417 16.1607 21.3498 16.1388 21.362 16.1191C21.3742 16.0995 21.3902 16.0824 21.409 16.0688C21.4279 16.0552 21.4493 16.0455 21.472 16.0401C21.4947 16.0346 21.5182 16.0337 21.5413 16.0373C21.5644 16.0409 21.5865 16.0489 21.6064 16.0609C21.6263 16.0729 21.6437 16.0887 21.6574 16.1073C21.6712 16.126 21.681 16.1471 21.6865 16.1695C21.8236 16.7382 21.901 17.052 22.0679 17.6363C22.0742 17.6585 22.0761 17.6817 22.0733 17.7045C22.0705 17.7274 22.0632 17.7495 22.0518 17.7695C22.0403 17.7895 22.025 17.8072 22.0066 17.8213C21.9882 17.8355 21.9672 17.8459 21.9447 17.8521C21.9295 17.8575 21.9133 17.8602 21.8971 17.8599Z" fill="black"/>
<path d="M21.8912 55.6535C23.0413 45.711 23.0075 35.8803 22.1792 30.2227C18.2403 30.4737 11.5185 31.4816 8.68396 33.8173C2.77856 38.6846 2.76863 46.4542 1.37223 53.6924C0.0890486 60.36 -0.496922 66.9138 1.31065 69.2043C1.48346 69.4239 2.80835 70.2907 3.08644 70.2417C3.91872 70.0966 9.67514 64.1487 9.67514 65.9274C9.67514 69.5004 9.22027 70.9398 9.22027 70.9398H19.1798C19.1798 70.9398 21.4979 59.0402 21.8912 55.6535Z" fill="#FFD42E"/>
<path d="M19.1804 71.1175H9.22086C9.19305 71.1178 9.16557 71.1115 9.14069 71.0993C9.11582 71.087 9.09427 71.069 9.07784 71.0469C9.06114 71.0251 9.05006 70.9995 9.04556 70.9726C9.04106 70.9456 9.04327 70.9179 9.05202 70.8919C9.05202 70.8763 9.49895 69.4251 9.49895 65.9305C9.49895 65.8501 9.48306 65.7952 9.45922 65.7834C9.0262 65.5873 6.84122 67.466 5.53619 68.5877C4.23116 69.7094 3.45053 70.3664 3.11682 70.4252C2.71955 70.4958 1.32912 69.5133 1.17021 69.3231C-0.816136 66.8051 0.0916233 59.4218 1.2 53.6701C1.46021 52.315 1.67672 50.9246 1.88529 49.5656C2.78908 43.7276 3.72266 37.6895 8.57132 33.6949C11.2628 31.4769 17.5774 30.3513 22.1678 30.0591C22.2127 30.0557 22.2571 30.0695 22.2918 30.0977C22.3266 30.1258 22.3491 30.166 22.3546 30.2101C23.2564 36.3756 23.1491 46.375 22.0665 55.684C21.6792 59.0394 19.3731 70.8566 19.3492 70.9802C19.3411 71.0186 19.3199 71.0532 19.2892 71.0781C19.2585 71.1031 19.2201 71.117 19.1804 71.1175ZM9.4473 70.7684H19.0274C19.2916 69.4133 21.3495 58.7864 21.713 55.6448C22.7777 46.4436 22.9048 36.5717 22.0268 30.4199C17.5039 30.7219 11.3899 31.826 8.79578 33.9635C4.05041 37.8738 3.16847 43.5726 2.24085 49.6185C2.03029 50.9717 1.81378 52.3738 1.55159 53.7367C-0.0196126 61.8809 -0.0533801 67.1973 1.45425 69.1074C1.62309 69.3212 2.8447 70.0879 3.06518 70.0879C3.31347 70.0448 4.37219 69.1348 5.30776 68.323C7.51856 66.4227 9.01428 65.199 9.61018 65.4657C9.69049 65.5101 9.75563 65.5771 9.79736 65.6581C9.83909 65.7391 9.85552 65.8305 9.84457 65.9207C9.84457 68.7328 9.57443 70.2272 9.4473 70.7586V70.7684Z" fill="black"/>
<path d="M51.9552 65.7665C55.038 65.3939 57.803 54.0748 53.1292 53.2864C52.4836 53.1766 49.7623 42.387 44.284 35.5821C41.368 31.9581 35.1468 31.0717 34.249 30.7188C38.2673 37.5824 31.917 70.9319 31.917 70.9319L40.2358 70.9476C40.2358 70.9476 42.1228 58.6636 42.4764 55.8299C42.7426 57.4341 44.8401 61.0718 47.2099 63.8506C48.0938 64.886 48.8863 64.684 49.4365 65.2233C50.0702 65.8567 51.2441 65.8509 51.9552 65.7665Z" fill="#FFD42E"/>
<path d="M40.2352 71.118H31.9124C31.8862 71.1182 31.8603 71.1127 31.8366 71.1018C31.8129 71.0909 31.7919 71.0749 31.7751 71.055C31.7584 71.0351 31.7464 71.0118 31.7399 70.9867C31.7334 70.9617 31.7326 70.9355 31.7376 70.9102C31.8012 70.5787 38.0304 37.5469 34.0914 30.8186C34.0725 30.7872 34.064 30.7506 34.0672 30.7142C34.0704 30.6777 34.0851 30.6432 34.1092 30.6155C34.1334 30.5877 34.1658 30.5682 34.2018 30.5596C34.2378 30.551 34.2756 30.5538 34.3099 30.5676C34.4569 30.6264 34.7906 30.7068 35.2117 30.8107C37.2378 31.301 41.9792 32.4541 44.4184 35.4839C48.2024 40.1904 50.7092 46.858 52.0559 50.4525C52.5406 51.7429 52.9975 52.9627 53.1782 53.1294C54.9083 53.4373 55.8618 55.1845 55.7942 57.9339C55.7108 61.3658 53.9887 65.7075 51.9725 65.9507C51.2833 66.035 50.0199 66.0683 49.3068 65.3624C49.0984 65.1802 48.8514 65.0462 48.5838 64.9702C47.9923 64.7876 47.4667 64.4403 47.0702 63.97C45.0978 61.658 43.2147 58.6085 42.5334 56.7142C42.005 60.5637 40.4219 70.8651 40.406 70.9788C40.3976 71.0176 40.3761 71.0524 40.3451 71.0777C40.3141 71.1029 40.2754 71.1172 40.2352 71.118ZM32.1309 70.7513L40.0763 70.767C40.2928 69.359 41.9653 58.434 42.2931 55.8023C42.2983 55.7605 42.3187 55.722 42.3505 55.6939C42.3822 55.6658 42.4232 55.6499 42.4659 55.6493C42.5083 55.6495 42.5494 55.6643 42.582 55.6911C42.6147 55.718 42.6368 55.7552 42.6446 55.7964C42.9168 57.4339 45.068 61.0677 47.3384 63.7327C47.6953 64.157 48.1705 64.4686 48.705 64.6289C49.0205 64.72 49.3111 64.8802 49.5551 65.0976C50.1848 65.7212 51.4243 65.6467 51.9288 65.5859C53.5795 65.3898 55.3513 61.5128 55.4387 57.9065C55.4685 56.6926 55.2977 53.8255 53.0908 53.4529C52.8127 53.4059 52.6141 52.9352 51.7222 50.5565C50.3815 46.9854 47.8866 40.3394 44.1384 35.6839C41.7746 32.7424 37.1147 31.6148 35.1263 31.1323L34.594 31.001C36.0897 34.1386 36.1453 41.669 34.7589 53.4137C33.7816 61.7227 32.3752 69.4139 32.125 70.7592L32.1309 70.7513Z" fill="black"/>
<path d="M11.4755 63.6423C11.461 63.6442 11.4463 63.6442 11.4318 63.6423C11.4093 63.6368 11.388 63.6269 11.3694 63.6133C11.3508 63.5996 11.3351 63.5824 11.3232 63.5627C11.3114 63.543 11.3037 63.5211 11.3005 63.4984C11.2973 63.4757 11.2987 63.4526 11.3047 63.4305C12.1211 60.3183 12.6176 57.1002 13.3029 52.6447C13.7717 49.613 14.3517 45.8399 15.1959 41.0569C15.2041 41.0112 15.2303 40.9705 15.2689 40.9438C15.3074 40.9172 15.3551 40.9067 15.4015 40.9148C15.4479 40.9228 15.4891 40.9487 15.5161 40.9868C15.5431 41.0249 15.5537 41.072 15.5455 41.1177C14.7013 45.8968 14.1213 49.6679 13.6545 52.6977C12.9652 57.163 12.4627 60.3889 11.6463 63.5168C11.6358 63.5534 11.6134 63.5855 11.5825 63.6082C11.5516 63.6309 11.514 63.6429 11.4755 63.6423Z" fill="black"/>
<path d="M42.4716 56.0049C42.4466 56.0049 42.422 55.9999 42.3991 55.9901C42.3762 55.9803 42.3556 55.966 42.3385 55.9481C42.3143 55.922 42.2987 55.8893 42.2937 55.8543C42.2887 55.8193 42.2947 55.7836 42.3107 55.752C42.3822 55.4637 42.6285 52.5457 42.8887 49.459C43.0516 47.543 43.2343 45.3722 43.4032 43.5053C43.4074 43.459 43.4301 43.4162 43.4662 43.3864C43.5023 43.3566 43.549 43.3422 43.5959 43.3464C43.6427 43.3506 43.686 43.3729 43.7162 43.4086C43.7464 43.4443 43.761 43.4903 43.7567 43.5366C43.5879 45.4016 43.4032 47.5725 43.2423 49.4884C42.704 55.8559 42.6861 55.8716 42.5888 55.9598C42.5567 55.9887 42.515 56.0048 42.4716 56.0049Z" fill="black"/>
<path d="M1.04898 63.5266C1.03326 63.5263 1.01827 63.52 1.00727 63.5089C0.996351 63.4979 0.990234 63.4831 0.990234 63.4677C0.990234 63.4523 0.996351 63.4375 1.00727 63.4265C3.28362 61.1929 6.99213 60.0673 10.4543 60.5595C10.4628 60.5596 10.4711 60.5614 10.4788 60.565C10.4864 60.5685 10.4932 60.5735 10.4988 60.5799C10.5043 60.5862 10.5084 60.5936 10.5108 60.6016C10.5132 60.6096 10.5139 60.618 10.5127 60.6262C10.5116 60.6345 10.5087 60.6424 10.5042 60.6495C10.4997 60.6566 10.4938 60.6626 10.4868 60.6672C10.4797 60.6719 10.4718 60.675 10.4635 60.6764C10.4551 60.6777 10.4466 60.6773 10.4384 60.6752C7.01 60.1869 3.34122 61.2988 1.0907 63.5089C1.08532 63.5145 1.07884 63.5189 1.07167 63.522C1.0645 63.525 1.05678 63.5266 1.04898 63.5266Z" fill="black"/>
<path d="M1.3312 64.6016C1.31942 64.6018 1.30787 64.5983 1.29823 64.5916C1.28859 64.5849 1.28136 64.5753 1.27757 64.5643C1.27434 64.5573 1.27261 64.5496 1.27247 64.5419C1.27233 64.5342 1.2738 64.5265 1.27677 64.5193C1.27975 64.5121 1.28417 64.5057 1.28977 64.5003C1.29538 64.4948 1.30204 64.4906 1.30935 64.4878C1.6946 64.3074 2.04539 64.0626 2.34622 63.7642C2.45944 63.6642 2.57862 63.5681 2.69781 63.4622C3.43912 62.8626 4.33178 62.4734 5.28005 62.3366C5.29558 62.3343 5.31138 62.3382 5.32403 62.3474C5.33667 62.3566 5.34514 62.3703 5.34759 62.3856C5.34987 62.4009 5.34594 62.4165 5.33664 62.429C5.32734 62.4415 5.31343 62.4498 5.29793 62.4523C4.37298 62.5871 3.50246 62.9674 2.77925 63.5524C2.66007 63.6485 2.54287 63.7485 2.42965 63.8505C2.11903 64.1586 1.75682 64.4113 1.35901 64.5976L1.3312 64.6016Z" fill="black"/>
<path d="M30.0094 38.5503C28.1723 38.5508 26.3595 38.1363 24.7098 37.3383C24.696 37.3312 24.6855 37.319 24.6807 37.3043C24.6758 37.2897 24.677 37.2737 24.684 37.2599C24.6909 37.2459 24.7031 37.2351 24.718 37.2299C24.7329 37.2248 24.7492 37.2257 24.7635 37.2324C26.9687 38.3008 29.4549 38.6687 31.8805 38.2855C33.1538 38.0894 34.0496 37.6737 34.6157 37.0403C34.6269 37.0295 34.6418 37.0234 34.6574 37.0234C34.673 37.0234 34.688 37.0295 34.6991 37.0403C34.7047 37.0454 34.7092 37.0516 34.7122 37.0585C34.7153 37.0654 34.7169 37.0729 34.7169 37.0805C34.7169 37.088 34.7153 37.0955 34.7122 37.1024C34.7092 37.1093 34.7047 37.1155 34.6991 37.1207C34.1032 37.7756 33.1955 38.1953 31.8924 38.4051C31.2697 38.5032 30.64 38.5517 30.0094 38.5503Z" fill="black"/>
<path d="M65.2872 44.232C67.2497 42.2945 66.4273 40.9532 68.6262 38.3901C69.5419 37.3213 70.4258 36.3957 71.2363 35.5525C71.6633 35.1093 72.0467 34.5386 72.4837 34.9034C73.0061 35.3387 72.4321 36.5153 72.1718 36.8938C71.1628 38.3587 71.2402 38.8392 71.2879 39.3824C73.02 38.0626 75.7075 36.3055 77.7892 35.6388C77.9442 35.5897 78.3454 35.6172 78.4447 35.7505C78.5838 35.9368 78.4447 36.4193 78.1468 36.633C76.9073 37.5017 75.0858 38.7568 73.8483 39.6275C76.0889 38.2234 79.0347 36.4467 79.5054 37.0252C79.6524 37.2096 79.569 37.7057 79.2551 37.9293C77.9104 38.8921 76.1406 40.0864 74.7958 41.0532C75.9479 40.0727 79.5173 38.0077 79.7974 38.747C80.0775 39.4863 76.7841 41.5435 75.3937 42.3789C76.5199 41.6866 79.1578 40.057 79.4558 40.7473C79.6802 41.267 78.8897 41.7415 78.6215 41.9455C76.5219 43.5555 74.0529 45.7597 71.7487 46.5677C71.2005 46.7638 70.3682 46.85 69.8975 47.1873C69.4267 47.5246 69.1347 47.9718 68.7295 48.4228C57.4332 61.1166 53.8558 65.4309 51.8217 65.0074C50.1135 64.6485 51.3848 57.777 53.1248 53.2882C54.0484 53.3215 61.1238 48.3424 65.2872 44.232Z" fill="white"/>
<path d="M52.0982 65.2103C51.9927 65.2103 51.8874 65.1991 51.7843 65.177C51.6493 65.145 51.5233 65.0833 51.416 64.9963C51.3086 64.9093 51.2227 64.7995 51.1646 64.675C50.2509 63.0139 51.3771 57.3073 52.9523 53.2244C52.9661 53.1906 52.99 53.1617 53.0209 53.1418C53.0518 53.1218 53.0882 53.1116 53.1251 53.1126C53.9733 53.1126 60.858 48.3414 65.1485 44.1056C66.0959 43.1701 66.3681 42.3936 66.6839 41.4954C67.0464 40.311 67.6553 39.2143 68.4716 38.2754C69.3595 37.2419 70.2156 36.3398 71.0896 35.4299C71.1512 35.3652 71.2128 35.2985 71.2724 35.2338C71.6299 34.8416 72.0669 34.3494 72.5794 34.771C73.2388 35.3201 72.5257 36.6634 72.2993 36.9929C71.5286 38.1126 71.4154 38.6264 71.4233 39.0461C73.2408 37.689 75.7714 36.1045 77.7141 35.473C77.8928 35.4162 78.4013 35.4221 78.5682 35.6476C78.6525 35.7794 78.6803 35.9387 78.6457 36.0908C78.6025 36.3635 78.4537 36.6089 78.2305 36.7752C77.9822 36.9497 77.7121 37.1399 77.426 37.338C78.7053 36.7046 79.3627 36.5987 79.6229 36.9183C79.6722 36.9884 79.7066 37.0677 79.724 37.1513C79.7415 37.2349 79.7415 37.3211 79.7242 37.4047C79.7079 37.5357 79.6654 37.6623 79.5993 37.7771C79.5332 37.8919 79.4447 37.9926 79.3389 38.0734C79.0846 38.2558 78.8125 38.448 78.5305 38.6441C79.0052 38.4656 79.4044 38.3774 79.6488 38.4381C79.7156 38.4511 79.7779 38.4809 79.8297 38.5245C79.8816 38.5681 79.9212 38.6241 79.9447 38.6872C80.0083 38.8539 80.1612 39.2598 78.5007 40.5267C78.758 40.4184 79.0418 40.3871 79.317 40.4364C79.3793 40.4536 79.4368 40.4843 79.4852 40.5264C79.5337 40.5685 79.572 40.6209 79.5971 40.6796C79.8494 41.2679 79.18 41.7464 78.8205 42.0033L78.7092 42.0857C78.312 42.3916 77.9008 42.7152 77.4678 43.0662C75.68 44.4782 73.6719 46.0764 71.7868 46.7412C71.5882 46.8098 71.3717 46.8647 71.1393 46.9216C70.7082 47.0256 70.2633 47.1354 69.9812 47.3374C69.671 47.5752 69.3955 47.8544 69.1629 48.1669C69.0616 48.2904 68.9642 48.4179 68.8411 48.5473C67.7817 49.7396 66.7885 50.8587 65.8616 51.9046C57.2647 61.604 54.0647 65.2103 52.0982 65.2103ZM53.2522 53.4441C51.7208 57.4426 50.6402 62.9865 51.4764 64.5063C51.5118 64.5852 51.5643 64.6554 51.6302 64.7119C51.6961 64.7685 51.7738 64.8101 51.8578 64.8338C53.5999 65.1966 56.8714 61.5137 65.6113 51.6634L68.5908 48.3061C68.702 48.1806 68.8033 48.0551 68.9026 47.9355C69.1552 47.5995 69.4533 47.2993 69.7885 47.0432C70.1262 46.8 70.6049 46.6824 71.0697 46.5706C71.2942 46.5157 71.5067 46.4627 71.6835 46.4C73.511 45.7568 75.5033 44.1762 77.2612 42.7819C77.6962 42.4387 78.1054 42.1131 78.5086 41.8013L78.6278 41.7131C78.9079 41.517 79.4223 41.1385 79.2873 40.809C79.282 40.797 79.2738 40.7864 79.2634 40.7782C79.253 40.77 79.2407 40.7644 79.2277 40.762C78.7569 40.6169 77.2095 41.4797 76.1707 42.1014C75.9522 42.2367 75.7218 42.3759 75.4794 42.521C75.4394 42.5452 75.3913 42.5527 75.3456 42.5419C75.3 42.531 75.2606 42.5027 75.2361 42.4632C75.2116 42.4237 75.204 42.3761 75.215 42.3311C75.226 42.286 75.2547 42.2471 75.2947 42.223L75.3245 42.2053L75.9422 41.8288C79.7461 39.4755 79.6527 38.8676 79.6289 38.8029C79.6289 38.8029 79.6289 38.7813 79.5753 38.7696C79.1184 38.6519 77.579 39.4049 76.3038 40.1972C75.8092 40.5404 75.3285 40.8796 74.8954 41.1777C74.8772 41.1919 74.8563 41.2024 74.8339 41.2086C74.8116 41.2147 74.7882 41.2165 74.7651 41.2138C74.7421 41.2111 74.7198 41.2039 74.6995 41.1926C74.6793 41.1814 74.6615 41.1663 74.6471 41.1483C74.6328 41.1303 74.6222 41.1096 74.6159 41.0876C74.6097 41.0655 74.6079 41.0424 74.6106 41.0197C74.6134 40.9969 74.6207 40.9749 74.6321 40.9549C74.6434 40.9349 74.6587 40.9173 74.6769 40.9032C75.1273 40.5405 75.6011 40.2071 76.0952 39.905L76.9235 39.3481C77.6882 38.8166 78.4788 38.2675 79.1522 37.7792C79.2867 37.6723 79.3731 37.5173 79.3925 37.3478C79.4099 37.2732 79.4008 37.195 79.3667 37.1262C79.329 37.0811 79.0608 36.8948 77.4221 37.7282C76.3534 38.2734 75.0643 39.0637 73.942 39.7658C73.903 39.7918 73.8552 39.8014 73.809 39.7926C73.7628 39.7838 73.722 39.7572 73.6957 39.7187C73.6694 39.6802 73.6596 39.633 73.6685 39.5874C73.6775 39.5418 73.7044 39.5015 73.7434 39.4755C74.3611 39.0421 75.1239 38.5127 75.8866 37.9832C76.6494 37.4537 77.4221 36.9164 78.0418 36.481C78.1872 36.3685 78.2844 36.2061 78.3139 36.0261C78.3301 35.9654 78.3252 35.9012 78.3 35.8437C78.1554 35.7825 77.9954 35.7661 77.8412 35.7966C75.8449 36.434 73.2031 38.1342 71.3935 39.5108C71.3686 39.5307 71.3386 39.5433 71.3068 39.5475C71.2751 39.5516 71.2428 39.5471 71.2134 39.5343C71.1841 39.5216 71.1589 39.5011 71.1406 39.4752C71.1223 39.4493 71.1115 39.4189 71.1095 39.3873V39.3402C71.0598 38.7833 71.0141 38.2577 72.0272 36.7909C72.2913 36.4085 72.7641 35.3613 72.3728 35.0259C72.1742 34.8534 71.9874 34.9828 71.5584 35.4554L71.3597 35.6613C70.4897 36.5673 69.6376 37.4655 68.7556 38.4911C67.9645 39.3966 67.3751 40.4563 67.0255 41.6013C66.7097 42.5014 66.4118 43.3506 65.4067 44.3468C61.6108 48.1061 54.6943 53.1362 53.2522 53.446V53.4441Z" fill="black"/>
<path d="M71.175 43.9752C71.1387 43.9754 71.1032 43.9646 71.0733 43.9442C71.0434 43.9238 71.0206 43.8948 71.008 43.8611C70.9954 43.8275 70.9936 43.7908 71.0029 43.7562C71.0122 43.7215 71.032 43.6905 71.0598 43.6673C71.4558 43.3286 71.7362 42.8775 71.8627 42.3756C71.9893 41.8737 71.9558 41.3455 71.7669 40.863C71.6868 40.6779 71.5952 40.4978 71.4928 40.3237C71.3392 40.0701 71.2147 39.8005 71.1214 39.5197C71.114 39.4974 71.1113 39.4739 71.1133 39.4505C71.1154 39.4271 71.1222 39.4044 71.1333 39.3837C71.1444 39.363 71.1597 39.3447 71.1782 39.3299C71.1966 39.3152 71.2179 39.3042 71.2407 39.2978C71.2636 39.2913 71.2875 39.2895 71.3111 39.2923C71.3347 39.2952 71.3574 39.3027 71.378 39.3145C71.3985 39.3262 71.4165 39.3419 71.4308 39.3607C71.445 39.3794 71.4553 39.4008 71.4611 39.4236C71.5485 39.6787 71.663 39.9238 71.8027 40.1551C71.9123 40.341 72.0098 40.5336 72.0947 40.7316C72.3108 41.2824 72.3493 41.8856 72.2049 42.4588C72.0606 43.0321 71.7404 43.5473 71.2882 43.934C71.2566 43.9604 71.2165 43.975 71.175 43.9752Z" fill="black"/>
<path d="M48.9988 63.9722C48.9849 63.972 48.9716 63.9669 48.9611 63.958C48.9505 63.949 48.9435 63.9367 48.9412 63.9232C48.4666 60.8732 48.8799 57.7529 50.133 54.9259C50.1393 54.9116 50.1512 54.9004 50.1659 54.8947C50.1806 54.889 50.197 54.8893 50.2115 54.8955C50.226 54.9018 50.2373 54.9134 50.2431 54.928C50.2489 54.9425 50.2486 54.9587 50.2423 54.973C48.996 57.7783 48.5827 60.8754 49.0505 63.9036C49.0522 63.9111 49.0523 63.9189 49.0508 63.9264C49.0493 63.934 49.0461 63.9411 49.0417 63.9474C49.0372 63.9537 49.0314 63.959 49.0247 63.9629C49.018 63.9669 49.0105 63.9694 49.0028 63.9703L48.9988 63.9722Z" fill="black"/>
<path d="M47.6189 63.48C47.6064 63.4798 47.5943 63.4757 47.5843 63.4683C47.5744 63.4609 47.567 63.4506 47.5632 63.4389C47.243 62.3682 47.2088 61.2339 47.4639 60.1463C47.4677 60.1312 47.4773 60.1183 47.4907 60.1102C47.5041 60.1021 47.5202 60.0996 47.5354 60.1031C47.5429 60.1047 47.55 60.1078 47.5562 60.1122C47.5625 60.1165 47.5678 60.122 47.5718 60.1284C47.5759 60.1348 47.5786 60.1419 47.5799 60.1494C47.5811 60.1568 47.5809 60.1644 47.5791 60.1718C47.3289 61.24 47.3625 62.3539 47.6765 63.4055C47.6789 63.4129 47.6798 63.4206 47.6791 63.4283C47.6784 63.436 47.6761 63.4434 47.6724 63.4502C47.6687 63.457 47.6636 63.463 47.6575 63.4678C47.6513 63.4726 47.6443 63.4761 47.6367 63.4781L47.6189 63.48Z" fill="black"/>
<path d="M9.62935 63.4238C15.1772 64.3475 20.7747 65.2084 26.3722 66.0693C26.8847 66.0987 29.4153 66.3026 30.041 66.3497C30.575 66.3766 31.1102 66.3277 31.6301 66.2046C33.4416 65.8242 37.2951 65.1456 37.9864 65.7535C39.6728 66.685 41.0156 68.3402 41.9213 70.264C42.4318 71.3406 42.6722 72.9898 42.3186 73.1839C42.2106 73.2545 42.0804 73.2842 41.952 73.2676C41.8235 73.251 41.7055 73.1893 41.6194 73.0937C41.1691 71.0819 40.015 69.2911 38.3598 68.0362C39.1035 68.704 39.7637 69.4572 40.3263 70.2796C40.8964 71.1131 41.3751 72.072 41.3195 73.0761C41.3217 73.1546 41.2965 73.2315 41.248 73.2938C41.1129 73.433 40.8845 73.282 40.7613 73.133C40.521 72.8427 37.4461 68.9775 36.7231 68.8991C37.5792 69.458 40.2985 72.88 40.2528 73.1663C40.2331 73.3069 40.1626 73.4358 40.0542 73.5291C39.9742 73.5829 39.8815 73.6153 39.7851 73.6232C39.6887 73.6311 39.5918 73.6142 39.504 73.5742C39.3288 73.4919 39.171 73.3774 39.0392 73.2369C38.1096 72.3505 37.3091 71.319 36.2583 70.5797C35.7319 70.211 35.0526 69.9149 34.4547 70.1541C35.4088 70.7687 36.2354 71.5574 36.8899 72.478C36.9926 72.6257 37.071 72.7885 37.1223 72.9604C37.1978 73.2153 37.2673 73.5742 37.0449 73.7213C36.6853 73.9625 36.4748 73.7546 36.2503 73.5546C35.4266 72.6987 34.516 71.9286 33.533 71.2562C33.2311 71.0601 32.8616 70.8483 32.518 70.9719C32.22 71.0778 30.7859 71.5602 28.1699 71.1209C27.278 70.968 26.3822 71.0052 25.2043 71.0582C9.77237 71.7583 5.07069 72.3623 1.89453 70.0777C1.27281 69.6305 1.12383 69.2226 1.62041 68.1068C2.93736 65.1241 3.94245 63.4866 9.62935 63.4238Z" fill="white"/>
<path d="M36.7212 73.9985C36.4896 73.9762 36.2759 73.8657 36.1253 73.6906L36.1095 73.6769C35.2924 72.8262 34.3884 72.0613 33.412 71.3942C33.1558 71.2217 32.828 71.0354 32.5579 71.1314C32.0374 71.3177 30.5596 71.7041 28.1204 71.2883C27.2265 71.1354 26.285 71.1785 25.1925 71.2275C23.1366 71.3197 21.2417 71.4138 19.5711 71.4962C8.35427 72.0453 4.57425 72.2316 1.77152 70.2176C1.02267 69.6803 0.941231 69.1488 1.4398 68.035C2.78257 65.0208 3.82342 63.3128 9.62155 63.248H9.65333C15.2826 64.1854 20.9278 65.0542 26.3843 65.8915C26.7716 65.9151 28.172 66.0249 29.189 66.1053L30.0491 66.172C30.5631 66.1966 31.0781 66.1491 31.5786 66.0308C33.263 65.6778 37.2436 64.9326 38.068 65.6072C39.6948 66.5073 41.0753 68.0899 42.0625 70.1803C42.5015 71.1099 42.9266 73.0317 42.3803 73.3278C42.2355 73.4198 42.0617 73.4566 41.8913 73.4314C41.721 73.4061 41.5658 73.3205 41.4547 73.1905C41.4418 73.2715 41.4044 73.3467 41.3474 73.4063C41.3126 73.443 41.2699 73.4717 41.2225 73.4903C41.1752 73.509 41.1242 73.5171 41.0733 73.5141C40.9792 73.501 40.8886 73.4697 40.8068 73.4219C40.725 73.3741 40.6535 73.3108 40.5966 73.2356L40.4893 73.1043L40.2808 72.8474C40.3513 72.9481 40.3919 73.0663 40.398 73.1886C40.3729 73.3707 40.281 73.5375 40.1397 73.6573C40.0351 73.7309 39.9127 73.7762 39.7848 73.7886C39.6569 73.801 39.5279 73.7801 39.4108 73.7279C39.215 73.6364 39.0384 73.5093 38.8903 73.3533C38.5785 73.0552 38.2766 72.7375 37.9846 72.4297C37.4251 71.7978 36.803 71.223 36.1273 70.7137C35.7837 70.4725 35.3189 70.2235 34.868 70.2333C35.6995 70.8192 36.423 71.5415 37.0073 72.3689C37.1214 72.5318 37.2079 72.7119 37.2635 72.9023C37.3171 73.0788 37.478 73.618 37.1165 73.8573C37.0023 73.9428 36.8645 73.9921 36.7212 73.9985ZM32.7227 70.7549C33.0495 70.7836 33.3608 70.9056 33.6186 71.106C34.6124 71.7843 35.5323 72.5624 36.3637 73.4278H36.3736C36.5981 73.6357 36.6994 73.7141 36.9258 73.5631C37.0192 73.5023 37.0212 73.3004 36.9258 72.9964C36.8821 72.8435 36.8152 72.698 36.7272 72.565C36.0867 71.6626 35.2777 70.8892 34.3436 70.2862C34.3166 70.2688 34.2949 70.2445 34.2809 70.2158C34.2669 70.1871 34.2611 70.1552 34.2641 70.1235C34.2676 70.0919 34.2796 70.0618 34.2988 70.0362C34.318 70.0107 34.3437 69.9907 34.3734 69.9784C35.0765 69.696 35.8353 70.0646 36.3458 70.4235C37.0415 70.9466 37.6817 71.538 38.2567 72.1884C38.5467 72.4924 38.8526 72.8081 39.1505 73.1003C39.2669 73.2246 39.4056 73.3263 39.5597 73.4004C39.6184 73.429 39.6836 73.4423 39.749 73.4389C39.8145 73.4354 39.8779 73.4154 39.9332 73.3808C40.0009 73.3196 40.0452 73.2371 40.0583 73.1474C39.9252 72.7219 37.4165 69.5587 36.612 69.0292C36.5807 69.0082 36.557 68.9778 36.5445 68.9425C36.5319 68.9072 36.5312 68.8688 36.5425 68.8331C36.556 68.796 36.5818 68.7644 36.6156 68.7435C36.6495 68.7225 36.6894 68.7133 36.7292 68.7174C36.9119 68.737 37.4681 68.7978 40.7793 72.8885L40.8846 73.016C40.9386 73.0904 41.0174 73.1439 41.1071 73.167C41.1228 73.1325 41.1303 73.095 41.1289 73.0572C41.1766 72.2512 40.8707 71.3981 40.1695 70.3706C39.6151 69.5588 38.9643 68.8155 38.2309 68.1565C38.1969 68.1264 38.1761 68.0844 38.1727 68.0395C38.1694 67.9945 38.1838 67.95 38.213 67.9153C38.2427 67.8811 38.2846 67.8593 38.33 67.8546C38.3754 67.8498 38.421 67.8625 38.4573 67.8898C40.1308 69.1625 41.303 70.9709 41.7725 73.0042C41.8359 73.0542 41.9137 73.083 41.9947 73.0865C42.0758 73.09 42.1558 73.0681 42.2234 73.0239C42.4081 72.8827 42.283 71.455 41.7566 70.3313C40.8111 68.3291 39.4386 66.7564 37.8932 65.9053C37.8818 65.8992 37.8712 65.892 37.8614 65.8837C37.3529 65.4307 34.3833 65.8033 31.668 66.374C31.1336 66.4997 30.5839 66.5499 30.0352 66.523L29.1751 66.4563C28.2058 66.3798 26.7399 66.2602 26.3704 66.2426H26.3525C20.896 65.4052 15.2548 64.5365 9.62552 63.5991C4.03993 63.6658 3.09045 65.213 1.76954 68.1762C1.2809 69.2724 1.4696 69.5665 1.98605 69.9411C4.68748 71.8825 8.43571 71.706 19.5592 71.1511C21.2317 71.0707 23.1347 70.9765 25.1826 70.8844C26.2949 70.8334 27.2543 70.7902 28.1879 70.9491C30.5417 71.3511 31.9481 70.9844 32.4446 70.8079C32.5334 70.7739 32.6276 70.756 32.7227 70.7549Z" fill="black"/>
</g>
<defs>
<clipPath id="clip0_6263_82287">
<rect width="80" height="74" fill="white"/>
</clipPath>
</defs>
</svg>
