<svg width="80" height="74" viewBox="0 0 80 74" fill="none" xmlns="http://www.w3.org/2000/svg">
<g clip-path="url(#clip0_6263_82315)">
<path d="M61.019 23.9115C60.9454 27.1046 62.9058 30.3637 65.9115 31.4154C67.5512 31.9819 69.3494 31.9063 71.0305 32.3444C72.7117 32.7825 74.4268 34.0438 74.4268 35.7904C74.4268 36.9442 73.7796 39.5669 77.2344 41.0983C80.0855 42.3653 79.4043 49.2177 70.5758 52.0935C67.872 52.9772 69.6154 50.7566 66.8021 50.3242C64.0247 49.8956 61.5077 48.3246 59.5906 46.2683C57.6736 44.212 56.3207 41.6912 55.2641 39.093C54.049 36.0926 53.198 32.7787 53.9433 29.631C54.6886 26.4833 57.4944 23.6321 61.019 23.9115Z" fill="black"/>
<path d="M69.5702 52.4746C68.9872 52.4746 68.7721 52.1611 68.5438 51.708C68.3155 51.2548 68.0343 50.6883 66.7852 50.4957C64.1606 50.0916 61.5644 48.6339 59.4737 46.3869C57.7756 44.561 56.3454 42.195 55.1114 39.1531C53.5642 35.3313 53.1434 32.2912 53.7906 29.5835C54.1816 27.944 55.0693 26.4654 56.3322 25.3501C56.9659 24.7775 57.7093 24.34 58.5174 24.0641C59.3254 23.7882 60.181 23.6796 61.0323 23.7451C61.0766 23.7484 61.118 23.7687 61.1479 23.8018C61.1777 23.8348 61.1937 23.878 61.1926 23.9226C61.1191 27.1817 63.1267 30.2652 65.9682 31.2565C66.8645 31.5699 67.8343 31.687 68.774 31.8003C69.549 31.8735 70.3181 31.9997 71.0759 32.1779C72.7741 32.6198 74.5986 33.9397 74.6118 35.7901C74.6118 35.9393 74.6024 36.1149 74.5911 36.2981C74.5213 37.5519 74.4024 39.6478 77.3157 40.9412C78.378 41.4133 78.9912 42.6237 78.9157 44.104C78.7836 46.6645 76.5383 50.3352 70.64 52.2612C70.2964 52.3865 69.9356 52.4585 69.5702 52.4746ZM60.5398 24.068C57.2416 24.068 54.7963 26.8814 54.1246 29.6647C53.4944 32.3082 53.9095 35.2709 55.4303 39.0209C56.6473 42.0232 58.0511 44.3552 59.7228 46.149C61.7625 48.3375 64.2871 49.7593 66.8324 50.1502C68.2589 50.3711 68.6023 51.0527 68.8513 51.5494C69.1004 52.046 69.2494 52.3443 70.5249 51.927C76.2534 50.0595 78.4327 46.5342 78.5591 44.0833C78.627 42.7521 78.0931 41.6701 77.1666 41.2509C74.0326 39.8593 74.159 37.6123 74.2345 36.2697C74.2458 36.0809 74.2552 35.9223 74.2533 35.7826C74.2439 34.1172 72.5552 32.9162 70.9797 32.5065C70.2341 32.3305 69.4777 32.2043 68.7155 32.1288C67.7588 32.0137 66.7701 31.8947 65.838 31.5624C62.9059 30.5389 60.8209 27.4082 60.8266 24.0585C60.7417 24.0698 60.6398 24.068 60.5398 24.068Z" fill="black"/>
<path d="M43.7598 16.6191C44.69 21.1509 45.5882 26.0377 43.7334 30.2786C43.1296 31.6589 42.2523 32.9222 41.756 34.3346C41.1673 36.0227 41.1485 37.8599 41.3088 39.6424C41.6145 43.0091 42.6296 46.4646 44.9919 48.8797C47.3543 51.2947 51.3185 52.3465 54.2374 50.6433C56.7998 49.1478 57.9696 45.9378 57.8092 42.9751C57.6488 40.0125 56.3847 37.2292 55.0507 34.58C51.8468 28.211 48.1147 22.1101 43.7598 16.6191Z" fill="black"/>
<path d="M50.3229 38.7444C50.406 36.3256 50.1078 34.968 50.0097 33.1628C50.9881 32.6728 52.0354 32.3348 53.1155 32.1602C53.5985 32.0828 54.1438 32.0525 54.5174 32.349C54.7495 32.5378 55.8552 31.5559 55.9703 31.8241C56.7571 33.6708 56.8231 36.3011 57.6099 38.1478C57.6703 38.2894 60.427 38.0345 60.4892 38.178C60.744 38.7784 60.5289 43.7842 60.3383 43.9107C50.2531 50.6215 45.3945 41.0236 45.3945 41.0236C45.3945 41.0236 47.2172 39.8963 50.3229 38.7444Z" fill="white"/>
<path d="M53.5433 46.4666C52.8219 46.4672 52.1033 46.3745 51.4056 46.1909C47.3036 45.1089 45.2545 41.1399 45.2337 41.0927C45.2139 41.0535 45.2095 41.0082 45.2214 40.9659C45.2333 40.9236 45.2606 40.8873 45.2979 40.8642C46.8467 39.9778 48.4683 39.2254 50.1452 38.6153C50.1756 37.3735 50.1182 36.1311 49.9735 34.8974C49.9187 34.346 49.8621 33.7776 49.8301 33.1659C49.8282 33.1318 49.8364 33.0979 49.8535 33.0684C49.8705 33.0389 49.8959 33.015 49.9263 32.9997C50.92 32.5019 51.9839 32.1587 53.0811 31.9819C53.5603 31.9045 54.1641 31.8573 54.6 32.1859C54.806 32.1168 55.002 32.0209 55.183 31.9007C55.5604 31.6723 55.7962 31.5476 55.9736 31.6062C56.0075 31.6169 56.0386 31.635 56.0647 31.6592C56.0908 31.6833 56.1112 31.7129 56.1245 31.7459C56.5264 32.69 56.7434 33.8343 56.9566 34.9427C57.1585 36.0076 57.368 37.1047 57.7359 37.9978C57.9378 38.0205 58.5642 37.9978 59.0322 37.9771C60.4794 37.9185 60.5737 37.9355 60.6435 38.0979C60.8322 38.5266 60.7718 40.5942 60.7492 41.2173C60.6586 43.8929 60.4982 44.0006 60.4303 44.0496C58.017 45.6584 55.7094 46.4666 53.5433 46.4666ZM45.6186 41.0851C46.0224 41.7951 47.981 44.9296 51.4924 45.8529C54.1339 46.5497 57.0698 45.8529 60.1944 43.7759C60.3643 43.2641 60.5265 39.0647 60.3378 38.3C60.1284 38.2773 59.5076 38.3 59.0416 38.3207C57.6019 38.3793 57.5076 38.3623 57.4378 38.2018C57.0378 37.2577 56.8189 36.1134 56.6076 35.0031C56.4038 33.94 56.1944 32.8411 55.8264 31.946C55.6629 32.0179 55.5046 32.1012 55.3528 32.1953C54.9358 32.4408 54.5981 32.6334 54.3981 32.4691C54.066 32.2104 53.5471 32.2538 53.132 32.3218C52.1071 32.4862 51.1121 32.8011 50.1791 33.2565C50.2112 33.8135 50.2621 34.3215 50.3169 34.8577C50.4674 36.1453 50.5236 37.4422 50.4848 38.738C50.4834 38.7726 50.472 38.8061 50.4519 38.8343C50.4318 38.8625 50.4039 38.8842 50.3716 38.8967C48.7331 39.4976 47.1455 40.2294 45.6243 41.0851H45.6186Z" fill="black"/>
<path d="M42.7164 17.7334C43.0146 19.9729 43.4712 22.3219 42.8863 24.5519C42.5712 25.7679 42.6014 31.9481 47.5581 33.7098C48.9181 34.1916 50.369 34.3607 51.8032 34.2048C53.2375 34.0489 54.6183 33.5719 55.8432 32.8091C57.6659 31.7026 59.8791 28.2641 59.4395 24.8521C60.949 25.2713 62.4396 24.2535 62.4584 22.8959C62.4679 22.1123 61.6056 21.1323 60.6942 21.1776C59.9904 21.2116 59.9055 21.2191 59.3734 21.6289C58.9801 19.9721 58.7925 18.2731 58.8149 16.5703C57.1017 14.682 54.3526 13.7153 51.6035 13.3036C50.6912 13.142 49.7611 13.1064 48.8392 13.1979C46.192 13.517 42.4127 15.4373 42.7164 17.7334Z" fill="white"/>
<path d="M50.7689 34.4428C49.6546 34.4424 48.5486 34.2508 47.499 33.8763C42.5461 32.1165 42.331 25.9967 42.7178 24.5088C43.2178 22.5847 42.9329 20.5435 42.6555 18.5797C42.6178 18.304 42.5801 18.0302 42.5423 17.7583C42.4574 17.1145 42.6593 16.4725 43.1404 15.8493C44.3178 14.3217 46.9405 13.2511 48.801 13.017C49.7392 12.9244 50.6856 12.96 51.6142 13.1227C53.8784 13.4626 56.9974 14.3161 58.9295 16.446C58.9594 16.4791 58.9756 16.5223 58.9748 16.5669C58.9509 18.1702 59.1175 19.7707 59.471 21.3347C59.8616 21.059 60.0371 21.0401 60.6767 21.008C60.9209 21.0064 61.1629 21.0545 61.388 21.1492C61.6131 21.244 61.8166 21.3835 61.9862 21.5594C62.3667 21.9062 62.5952 22.3893 62.622 22.9038C62.6133 23.2376 62.5273 23.5648 62.3708 23.8596C62.2143 24.1545 61.9916 24.4091 61.7201 24.6032C61.4234 24.8222 61.0849 24.9779 60.7257 25.0607C60.3664 25.1436 59.994 25.1517 59.6314 25.0847C59.9578 28.5628 57.7219 31.8824 55.9256 32.9643C54.3751 33.9217 52.5909 34.4333 50.7689 34.4428ZM42.8895 17.7017C42.9253 17.9736 42.9631 18.2474 43.0027 18.5212C43.2838 20.5246 43.5688 22.596 43.0555 24.5881C42.8385 25.4246 42.565 31.7426 47.616 33.5364C48.9505 34.0142 50.3758 34.1833 51.7849 34.0309C53.1941 33.8785 54.5504 33.4086 55.7521 32.6565C57.4634 31.6161 59.7012 28.2475 59.2654 24.8713C59.2617 24.8427 59.2652 24.8137 59.2756 24.7868C59.2859 24.7599 59.3029 24.736 59.3248 24.7172C59.3467 24.6985 59.3729 24.6855 59.401 24.6794C59.4292 24.6734 59.4584 24.6744 59.4861 24.6825C59.8303 24.7804 60.1924 24.7982 60.5445 24.7348C60.8967 24.6713 61.2298 24.5281 61.5182 24.3162C61.7449 24.1529 61.9309 23.9395 62.0618 23.6926C62.1927 23.4456 62.265 23.1719 62.273 22.8925C62.2463 22.4736 62.0558 22.0822 61.7428 21.8029C61.6071 21.661 61.4444 21.5477 61.2642 21.4699C61.084 21.392 60.89 21.3512 60.6937 21.3498C60.0031 21.3838 59.9616 21.3856 59.4654 21.7671C59.442 21.7849 59.4145 21.7965 59.3855 21.8008C59.3565 21.805 59.3268 21.8019 59.2993 21.7916C59.2731 21.7803 59.2499 21.7632 59.2313 21.7417C59.2126 21.7201 59.1991 21.6945 59.1918 21.667C58.7991 20.0144 58.6091 18.3202 58.6257 16.6216C56.7596 14.6069 53.7596 13.7893 51.5633 13.4607C50.6682 13.3048 49.7562 13.2705 48.8519 13.3587C47.0537 13.5834 44.5367 14.605 43.4178 16.057C42.9952 16.6046 42.8178 17.1598 42.8895 17.7055V17.7017Z" fill="black"/>
<path d="M53.541 26.7811C52.8002 26.7752 52.0866 26.5016 51.5315 26.0107C50.8402 25.4076 50.3972 24.5692 50.2881 23.658C50.039 21.7244 51.2617 19.9665 53.0145 19.7399C53.4425 19.6868 53.8769 19.7255 54.2888 19.8535C54.7006 19.9814 55.0806 20.1957 55.4033 20.482C56.0952 21.0845 56.5385 21.9232 56.6467 22.8347C56.7733 23.7447 56.5574 24.6694 56.041 25.4291C55.8013 25.7872 55.4882 26.0903 55.1226 26.3182C54.757 26.546 54.3471 26.6935 53.9202 26.7509C53.7946 26.7694 53.6679 26.7795 53.541 26.7811ZM53.3938 20.0684C53.2821 20.0685 53.1705 20.076 53.0598 20.0911C51.4975 20.2912 50.4088 21.8736 50.6334 23.6164C50.7331 24.4436 51.1366 25.2041 51.7655 25.7501C52.0497 26.0064 52.386 26.1981 52.7513 26.3121C53.1165 26.426 53.5021 26.4596 53.8815 26.4105C54.261 26.3613 54.6253 26.2306 54.9495 26.0273C55.2737 25.8241 55.5502 25.553 55.7599 25.2328C56.2272 24.5449 56.4223 23.7076 56.3071 22.8838C56.2078 22.057 55.8041 21.2969 55.175 20.752C54.683 20.3168 54.0504 20.074 53.3938 20.0684Z" fill="black"/>
<path d="M44.5862 27.1922C42.9805 27.1922 41.5672 25.8704 41.3295 24.0709C41.0785 22.1374 42.3031 20.3794 44.056 20.1547C45.8088 19.93 47.4391 21.316 47.6881 23.2496C47.9372 25.1831 46.7145 26.9411 44.9617 27.1677C44.8372 27.1842 44.7117 27.1924 44.5862 27.1922ZM44.4315 20.4795C44.3211 20.4799 44.2108 20.4869 44.1013 20.5003C42.539 20.7023 41.4597 22.2847 41.6748 24.0275C41.8899 25.7704 43.3541 27.0223 44.9164 26.8202C46.4787 26.6182 47.5674 25.0377 47.3428 23.2949C47.1334 21.6767 45.8636 20.4795 44.4315 20.4795Z" fill="black"/>
<path d="M60.8966 8.56245C62.4731 5.83429 61.5411 2.34375 58.8149 0.766111C56.0888 -0.811532 52.6009 0.12114 51.0244 2.8493C49.4479 5.57745 50.3799 9.06799 53.106 10.6456C55.8322 12.2233 59.3201 11.2906 60.8966 8.56245Z" fill="black"/>
<path d="M59.1716 21.8664C57.7244 19.6212 56.8395 18.003 56.364 15.2707C51.0224 18.4354 45.9525 18.9264 40.8372 18.7319C40.7297 17.8614 40.9127 15.9354 41.275 15.1102C42.1599 13.0861 43.2656 11.3338 46.3544 9.95347C48.5167 8.98669 51.4299 8.3428 53.7715 8.68079C56.1131 9.01879 58.0999 10.2745 59.7283 11.7869C61.0245 12.9898 62.1189 14.963 62.5038 16.9135C62.834 18.5827 62.4245 19.8157 61.6774 21.517C61.2585 21.2904 60.8622 21.062 60.3773 21.1564C59.8924 21.2508 59.5698 21.4963 59.1716 21.8664Z" fill="black"/>
<path d="M51.4201 30.4185C51.0523 30.4255 50.694 30.3017 50.4088 30.0692C50.3771 30.0385 50.3582 29.997 50.3557 29.9529C50.3533 29.9088 50.3675 29.8655 50.3956 29.8314C50.4237 29.7974 50.4635 29.7752 50.5072 29.7692C50.5509 29.7632 50.5952 29.7739 50.6314 29.7992C51.0088 30.1089 51.5541 30.1542 52.1088 29.9219C52.7427 29.649 53.2516 29.1485 53.5352 28.519C53.5567 28.4798 53.5923 28.4502 53.6348 28.4364C53.6772 28.4225 53.7234 28.4254 53.7638 28.4444C53.8042 28.4634 53.8359 28.4972 53.8523 28.5388C53.8688 28.5803 53.8687 28.6266 53.8522 28.6681C53.5307 29.376 52.9568 29.9382 52.2428 30.2448C51.9829 30.3571 51.7032 30.4162 51.4201 30.4185Z" fill="black"/>
<path d="M53.316 23.4019C53.3079 23.2941 53.2677 23.1913 53.2006 23.1066C53.1334 23.022 53.0424 22.9594 52.9394 22.9271C52.8363 22.8947 52.7259 22.8941 52.6225 22.9252C52.5191 22.9564 52.4274 23.0178 52.3592 23.1017C52.2911 23.1855 52.2497 23.2879 52.2403 23.3956C52.231 23.5033 52.2541 23.6113 52.3068 23.7057C52.3594 23.8 52.4392 23.8764 52.5357 23.9249C52.6322 23.9735 52.741 23.9919 52.8481 23.9778C52.9863 23.9631 53.113 23.8942 53.2006 23.7863C53.2883 23.6785 53.3298 23.5403 53.316 23.4019Z" fill="black"/>
<path d="M45.3393 23.8222C45.3309 23.7146 45.2905 23.612 45.2233 23.5276C45.156 23.4432 45.0651 23.3809 44.9621 23.3487C44.8592 23.3166 44.749 23.316 44.6457 23.3472C44.5424 23.3783 44.4509 23.4397 44.3828 23.5234C44.3147 23.6071 44.2733 23.7093 44.2638 23.8168C44.2543 23.9243 44.2773 24.0322 44.3297 24.1266C44.382 24.2209 44.4615 24.2974 44.5577 24.3461C44.6539 24.3948 44.7625 24.4136 44.8695 24.4C45.0082 24.3852 45.1354 24.3162 45.2234 24.2079C45.3114 24.0997 45.3531 23.961 45.3393 23.8222Z" fill="black"/>
<path d="M48.3323 27.0716C48.311 27.0714 48.29 27.0675 48.27 27.0603L47.5417 26.7827C47.4748 26.7651 47.4125 26.7332 47.3591 26.6892C47.3057 26.6452 47.2624 26.5901 47.2323 26.5278C47.2113 26.4469 47.2117 26.362 47.2331 26.2813C47.2546 26.2006 47.2966 26.1268 47.3549 26.0671C47.6262 25.7051 47.8114 25.286 47.8964 24.8417C47.9814 24.3973 47.964 23.9394 47.8455 23.5028C47.8333 23.4583 47.8391 23.4107 47.8617 23.3704C47.8843 23.3301 47.9219 23.3003 47.9662 23.2876C48.011 23.2753 48.0588 23.2811 48.0994 23.3037C48.14 23.3262 48.1701 23.3639 48.1832 23.4084C48.3155 23.8967 48.335 24.4087 48.2402 24.9057C48.1454 25.4027 47.9388 25.8715 47.636 26.2766C47.6015 26.3142 47.5751 26.3586 47.5587 26.4069C47.5929 26.4267 47.6289 26.4431 47.6662 26.456L48.3945 26.7336C48.4318 26.7489 48.4627 26.7766 48.4819 26.8119C48.5012 26.8473 48.5078 26.8883 48.5005 26.9279C48.4932 26.9675 48.4725 27.0034 48.4418 27.0296C48.4112 27.0558 48.3725 27.0706 48.3323 27.0716Z" fill="black"/>
<path d="M47.3847 22.7274C47.339 22.7274 47.2951 22.7093 47.2626 22.6772C47.2301 22.645 47.2116 22.6013 47.2111 22.5555C47.2016 22.0646 47.6828 21.7209 48.1545 21.5982C48.5464 21.5016 48.9556 21.4986 49.3489 21.5894C49.7423 21.6803 50.1087 21.8625 50.4187 22.1212C50.4362 22.1362 50.4506 22.1546 50.461 22.1752C50.4713 22.1958 50.4775 22.2183 50.4791 22.2414C50.4806 22.2644 50.4776 22.2875 50.4702 22.3093C50.4627 22.3312 50.451 22.3513 50.4357 22.3686C50.4209 22.3861 50.4027 22.4004 50.3822 22.4108C50.3618 22.4211 50.3395 22.4273 50.3166 22.4288C50.2938 22.4304 50.2708 22.4274 50.2491 22.42C50.2275 22.4126 50.2075 22.4009 50.1904 22.3856C49.9238 22.1651 49.6095 22.0098 49.2725 21.9322C48.9354 21.8545 48.5849 21.8565 48.2488 21.9381C47.9035 22.0268 47.5582 22.2647 47.562 22.5499C47.5625 22.5728 47.5585 22.5957 47.5501 22.6171C47.5417 22.6385 47.5292 22.658 47.5132 22.6745C47.4972 22.691 47.4781 22.7042 47.4571 22.7132C47.436 22.7223 47.4133 22.7271 47.3903 22.7274H47.3847Z" fill="black"/>
<path d="M56.2835 21.8796C56.259 21.8821 56.2343 21.8795 56.211 21.8719C56.1876 21.8643 56.1661 21.8518 56.1478 21.8353C56.1296 21.8189 56.115 21.7988 56.105 21.7763C56.095 21.7538 56.0898 21.7295 56.0898 21.7049C56.0898 21.6803 56.095 21.656 56.105 21.6335C56.115 21.611 56.1296 21.5909 56.1478 21.5745C56.1661 21.558 56.1876 21.5455 56.211 21.5379C56.2343 21.5303 56.259 21.5277 56.2835 21.5302H58.9251C58.9495 21.5277 58.9742 21.5303 58.9976 21.5379C59.021 21.5455 59.0425 21.558 59.0607 21.5745C59.079 21.5909 59.0936 21.611 59.1036 21.6335C59.1136 21.656 59.1187 21.6803 59.1187 21.7049C59.1187 21.7295 59.1136 21.7538 59.1036 21.7763C59.0936 21.7988 59.079 21.8189 59.0607 21.8353C59.0425 21.8518 59.021 21.8643 58.9976 21.8719C58.9742 21.8795 58.9495 21.8821 58.9251 21.8796H56.2835Z" fill="black"/>
<path d="M59.4046 23.7064C59.3815 23.7062 59.3588 23.7014 59.3376 23.6924C59.3164 23.6833 59.2972 23.6702 59.2811 23.6537C59.2649 23.6372 59.2522 23.6177 59.2436 23.5963C59.235 23.5749 59.2308 23.552 59.231 23.529C59.2344 22.8805 59.106 22.238 58.8536 21.6407C58.8356 21.5981 58.8352 21.5502 58.8526 21.5073C58.8699 21.4645 58.9036 21.4303 58.9461 21.4122C58.9886 21.3942 59.0366 21.3938 59.0794 21.4112C59.1222 21.4285 59.1564 21.4622 59.1744 21.5048C59.447 22.1491 59.5844 22.8425 59.5782 23.5422C59.5753 23.5864 59.5558 23.628 59.5236 23.6584C59.4914 23.6889 59.4489 23.7061 59.4046 23.7064Z" fill="black"/>
<path d="M78.7473 59.3912C76.4132 53.0071 75.1226 46.7061 69.6168 42.1063C66.9753 39.899 63.7846 38.3298 60.111 38.0957C59.8864 41.655 55.7543 44.0002 53.541 44.2646C52.3353 44.41 47.8597 45.0048 47.8597 39.7328C46.3974 40.3144 41.5369 40.913 39.5897 46.9081C38.7916 49.3628 37.3633 58.7398 32.6575 64.176C31.5461 65.46 30.5178 56.9158 28.9197 57.4841C27.3215 58.0525 25.5422 58.9777 25.4234 60.6394C25.3328 61.9366 26.3988 63.0639 27.5913 63.5775C30.1536 64.6783 31.114 70.0182 33.8764 70.4072C36.7463 70.8132 41.3332 71.8725 44.8031 61.0132C46.5767 62.7882 47.722 64.6953 49.7088 65.7678C55.4429 68.8626 74.5245 72.337 77.634 72.8884C77.8925 72.9337 78.4774 72.7222 78.5774 72.4805C79.2359 70.9397 80.9454 65.409 78.7473 59.3912Z" fill="#FFD42E"/>
<path d="M77.7093 73.0571C77.6745 73.0571 77.6398 73.0539 77.6055 73.0477C73.9356 72.3963 55.3409 68.9899 49.6294 65.9102C48.252 65.1662 47.2727 64.0351 46.2331 62.838C45.8048 62.3414 45.3633 61.8316 44.8765 61.3274C43.3991 65.8422 41.6028 68.6689 39.3933 69.9623C37.4612 71.0953 35.6196 70.8252 34.1385 70.6081L33.8517 70.5722C32.2894 70.3532 31.2875 68.6575 30.3176 67.0186C29.5025 65.642 28.661 64.2183 27.5213 63.7292C26.3175 63.2119 25.1477 62.0487 25.2571 60.6193C25.3552 59.222 26.5364 58.1401 28.8685 57.3111C28.9506 57.281 29.0381 57.2687 29.1252 57.2749C29.2124 57.2811 29.2972 57.3056 29.3742 57.347C30.1082 57.7133 30.6723 59.5204 31.2176 61.267C31.5837 62.4434 32.0856 64.054 32.4214 64.1239C32.4573 64.1239 32.5007 64.0899 32.5328 64.054C36.2819 59.7224 37.9593 52.7718 38.8593 49.0369C39.0895 48.0928 39.2707 47.3375 39.4254 46.8446C41.1235 41.5972 45.1104 40.3944 47.0237 39.8166C47.3331 39.7222 47.601 39.641 47.7973 39.5636C47.8241 39.5538 47.8529 39.5502 47.8813 39.5532C47.9097 39.5561 47.9371 39.5655 47.9614 39.5806C47.9848 39.597 48.0038 39.6187 48.0169 39.644C48.0301 39.6694 48.0369 39.6975 48.0369 39.726C48.0369 41.3272 48.4596 42.5149 49.2935 43.2532C50.6313 44.4409 52.7031 44.1973 53.4823 44.0991H53.5238C55.6465 43.8461 59.7221 41.5595 59.9391 38.0927C59.9405 38.0699 59.9464 38.0477 59.9564 38.0273C59.9664 38.0069 59.9804 37.9887 59.9976 37.9737C60.0145 37.9581 60.0345 37.9462 60.0562 37.9387C60.078 37.9312 60.1011 37.9283 60.124 37.9303C63.5429 38.1493 66.7751 39.5126 69.7299 41.9805C74.3092 45.7967 75.9847 50.7457 77.7546 55.9988C78.132 57.0883 78.5093 58.2156 78.9112 59.3297C80.9037 64.7829 79.7433 70.1983 78.7433 72.5473C78.615 72.8381 78.0603 73.0571 77.7093 73.0571ZM44.8029 60.8251C44.8261 60.8252 44.8491 60.8299 44.8705 60.8389C44.8919 60.848 44.9112 60.8613 44.9274 60.878C45.5029 61.4445 46.0104 62.0412 46.5029 62.6095C47.5161 63.7821 48.4728 64.8886 49.7954 65.6024C55.456 68.6557 74.0054 72.0526 77.6659 72.704C77.8735 72.738 78.3603 72.5454 78.4206 72.4C78.5282 72.1489 81.0283 66.15 78.581 59.4505C78.1716 58.3308 77.7904 57.2035 77.4206 56.1121C75.6659 50.9138 74.0073 46.0025 69.4959 42.2392C66.6487 39.86 63.5429 38.5307 60.2617 38.2739C60.073 40.249 58.7523 41.6728 57.6711 42.5432C56.4182 43.5402 54.8012 44.2804 53.5521 44.4315H53.5106C52.688 44.5297 50.503 44.7921 49.0482 43.5006C48.1822 42.7321 47.7275 41.5406 47.6784 39.9601C47.5124 40.0149 47.3218 40.0734 47.1124 40.1357C45.1161 40.74 41.3971 41.8635 39.7537 46.9334C39.5971 47.4111 39.4178 48.157 39.1876 49.1011C38.2801 52.8643 36.5914 59.864 32.7856 64.2636C32.7368 64.334 32.6691 64.3891 32.5903 64.4225C32.5114 64.4559 32.4248 64.4663 32.3403 64.4524C31.8271 64.3448 31.4667 63.2628 30.8724 61.3595C30.3969 59.8376 29.8082 57.9456 29.2063 57.6453C29.171 57.6262 29.1322 57.6147 29.0922 57.6115C29.0523 57.6082 29.0121 57.6133 28.9742 57.6265C26.7873 58.4044 25.6817 59.3863 25.5949 60.6306C25.5081 61.875 26.6006 62.94 27.6572 63.395C28.9006 63.9294 29.7723 65.4022 30.6157 66.8278C31.5856 68.4668 32.5026 70.0171 33.897 70.2135L34.1894 70.255C37.0291 70.6685 41.3235 71.2954 44.6331 60.9384C44.6423 60.91 44.6585 60.8844 44.6803 60.8639C44.7021 60.8434 44.7287 60.8288 44.7576 60.8214L44.8029 60.8251Z" fill="black"/>
<path d="M71.8994 65.5509C66.6615 65.2601 61.3916 64.8976 56.1217 64.5351C55.65 64.4576 53.3065 64.1215 52.7254 64.0366C52.2366 63.9511 51.7626 63.7959 51.3178 63.5758C49.7498 62.8526 46.3875 61.4308 45.6384 61.8519C43.9082 62.3598 42.3421 63.6098 41.11 65.1903C40.4232 66.0777 39.859 67.5487 40.1439 67.8017C40.2275 67.8889 40.3398 67.943 40.46 67.9541C40.5803 67.9652 40.7005 67.9326 40.7987 67.8621C41.6279 66.1 43.0517 64.6872 44.8195 63.8723C44.0009 64.3341 43.2408 64.8926 42.5553 65.5358C41.8647 66.1854 41.2345 66.9709 41.0723 67.9074C41.0537 67.9799 41.0603 68.0565 41.0911 68.1246C41.1855 68.2794 41.4251 68.1888 41.5685 68.0774C41.8477 67.8584 45.4516 64.9297 46.1233 65.0071C45.229 65.3451 42.0364 67.9377 42.0232 68.2171C42.0113 68.3511 42.0474 68.485 42.1251 68.5948C42.1867 68.6612 42.2644 68.7106 42.3507 68.738C42.437 68.7655 42.529 68.7701 42.6176 68.7515C42.7938 68.7115 42.9609 68.6384 43.11 68.5362C44.1402 67.9093 45.0837 67.1257 46.1969 66.6612C46.7516 66.4308 47.4309 66.2968 47.9252 66.6404C46.9295 67.0112 46.0132 67.5681 45.2252 68.2813C45.101 68.3961 44.9959 68.5299 44.9138 68.6778C44.7912 68.8969 44.6535 69.2141 44.8233 69.3954C45.1007 69.6918 45.3365 69.5427 45.578 69.3954C46.5066 68.7767 47.4961 68.2547 48.5309 67.8376C48.846 67.7111 49.2253 67.6016 49.5121 67.7847C49.7611 67.9452 50.9631 68.6911 53.4348 68.8195C54.2763 68.8629 55.0896 69.0838 56.1443 69.3746C70.0314 73.204 74.1806 74.7315 77.5448 73.2851C78.2033 73.0019 78.4241 72.6545 78.2052 71.5234C77.6297 68.4966 77.058 66.7839 71.8994 65.5509Z" fill="white"/>
<path d="M74.7382 74.0022C72.0796 74.0022 68.2909 72.941 61.1643 70.947C59.6548 70.5278 57.9567 70.0501 56.1113 69.5403C55.1283 69.2703 54.2811 69.0361 53.4377 68.9927C51.1282 68.8719 49.8659 68.2091 49.43 67.9296C49.2093 67.788 48.8734 67.8919 48.6074 67.9976C47.584 68.4105 46.6053 68.9268 45.6866 69.5384L45.662 69.5535C45.4299 69.6895 45.079 69.8953 44.7186 69.5044C44.4356 69.2042 44.6978 68.7359 44.7828 68.5829C44.8737 68.4188 44.9903 68.2703 45.128 68.143C45.8271 67.5091 46.6284 66.9984 47.4979 66.6324C47.0837 66.5752 46.6619 66.6408 46.2847 66.8212C45.5649 67.1515 44.8798 67.5525 44.2393 68.0184C43.911 68.2412 43.5695 68.4734 43.2223 68.683C43.0547 68.7978 42.8663 68.8787 42.6676 68.9209C42.5487 68.9455 42.4255 68.9384 42.3103 68.9003C42.195 68.8622 42.0918 68.7944 42.011 68.7038C41.9061 68.562 41.8564 68.3868 41.8714 68.211C41.8905 68.1261 41.933 68.0483 41.994 67.9863L41.8204 68.1241L41.6978 68.2223C41.5589 68.34 41.3791 68.3977 41.1978 68.3828C41.1495 68.3745 41.1036 68.3559 41.0632 68.3282C41.0229 68.3005 40.9889 68.2643 40.9638 68.2223C40.9282 68.1595 40.9094 68.0886 40.9091 68.0165C40.779 68.1084 40.6205 68.1511 40.4618 68.1369C40.3032 68.1227 40.1548 68.0526 40.043 67.9391C39.5864 67.5331 40.4072 65.8412 40.9864 65.0897C42.3223 63.3658 43.9091 62.1913 45.579 61.6909C46.4734 61.2377 49.9414 62.7464 51.398 63.4186C51.8283 63.6309 52.2862 63.7815 52.7584 63.8661L53.5131 63.9757C54.4169 64.1059 55.7774 64.3042 56.1396 64.3627C61.2888 64.7177 66.6116 65.0822 71.906 65.3786H71.9362C77.2005 66.6362 77.7854 68.4281 78.3854 71.4852C78.6062 72.6181 78.4194 73.0977 77.6307 73.4414C76.7168 73.8301 75.7311 74.0212 74.7382 74.0022ZM49.1659 67.5104C49.3257 67.5071 49.4831 67.5504 49.6187 67.6351C50.0301 67.8994 51.2301 68.5282 53.4547 68.6434C54.3377 68.6887 55.2019 68.9266 56.2038 69.2098C58.0604 69.714 59.7586 70.1955 61.268 70.6109C71.2683 73.4055 74.6287 74.3496 77.4948 73.1223C78.0364 72.8881 78.2666 72.6578 78.0609 71.555C77.4798 68.5565 76.9401 66.9345 71.889 65.7242C66.5965 65.4296 61.2737 65.0633 56.1264 64.7102H56.1094C55.7641 64.6535 54.3905 64.4534 53.4811 64.3231L52.7263 64.2117C52.2206 64.1236 51.73 63.9634 51.2697 63.7358C48.9206 62.652 46.3035 61.6966 45.7488 62.0062L45.713 62.0213C44.1318 62.4858 42.5582 63.6509 41.2808 65.2993C40.5562 66.2434 40.1638 67.4991 40.2959 67.6747C40.3462 67.7265 40.4113 67.7613 40.4823 67.7745C40.5532 67.7877 40.6265 67.7786 40.6921 67.7484C41.5452 65.9699 42.9901 64.544 44.779 63.7151C44.8196 63.6991 44.8647 63.6988 44.9055 63.7143C44.9463 63.7297 44.9799 63.7599 44.9997 63.7988C45.0195 63.8377 45.0241 63.8826 45.0126 63.9247C45.0011 63.9669 44.9743 64.0032 44.9375 64.0266C44.1257 64.4796 43.3718 65.0293 42.6921 65.6637C41.8412 66.4643 41.3864 67.1875 41.2619 67.9296C41.2506 68.0014 41.2619 68.0221 41.2619 68.0278C41.3427 68.0192 41.4191 67.9863 41.4808 67.9334L41.5997 67.8371C45.4715 64.7461 45.9922 64.8065 46.1639 64.8272C46.2028 64.8313 46.2391 64.8484 46.2669 64.8759C46.2946 64.9034 46.3122 64.9395 46.3168 64.9783C46.3224 65.0177 46.3144 65.0579 46.2942 65.0922C46.2739 65.1266 46.2426 65.153 46.2054 65.1671C45.3582 65.4862 42.4487 67.8446 42.2185 68.2412C42.2125 68.3231 42.2352 68.4046 42.2827 68.4715C42.3251 68.5131 42.3771 68.5434 42.434 68.5599C42.491 68.5764 42.5511 68.5785 42.6091 68.566C42.7628 68.5298 42.9086 68.4658 43.0393 68.3771C43.379 68.1713 43.7167 67.9428 44.0412 67.72C44.7009 67.2407 45.407 66.8289 46.1488 66.4908C46.6922 66.2642 47.4602 66.081 48.0357 66.4908C48.0616 66.509 48.0821 66.5338 48.0951 66.5628C48.108 66.5917 48.1129 66.6236 48.1093 66.6551C48.1057 66.6869 48.0935 66.7172 48.0738 66.7425C48.0542 66.7679 48.0279 66.7873 47.9979 66.7986C47.0228 67.1593 46.126 67.7041 45.3564 68.4036C45.2457 68.5058 45.1521 68.625 45.079 68.7567C44.9375 69.0097 44.8903 69.1966 44.9639 69.2703C45.1318 69.4497 45.2375 69.3987 45.4809 69.2552L45.4979 69.2457C46.4334 68.6221 47.4305 68.0963 48.4734 67.6766C48.6918 67.5785 48.9267 67.5221 49.1659 67.5104Z" fill="black"/>
<path d="M37.232 72.3197L50.272 72.5991L50.2889 70.3823L35.7754 70.0273L37.232 72.3197Z" fill="black"/>
<path d="M0.175781 52.0801L28.5236 52.2349L38.2937 72.3182L10.2119 72.2483L0.175781 52.0801Z" fill="white"/>
<path d="M38.2951 72.4937L10.2114 72.4238C10.1789 72.424 10.1471 72.4148 10.1197 72.3974C10.0923 72.38 10.0704 72.3551 10.0567 72.3256L0.0187101 52.1593C0.00512898 52.1327 -0.00195312 52.1032 -0.00195312 52.0734C-0.00195312 52.0435 0.00512898 52.014 0.0187101 51.9874C0.0346667 51.9624 0.0567094 51.9418 0.0827783 51.9276C0.108847 51.9134 0.138089 51.9061 0.167769 51.9063L28.5156 52.0611C28.5483 52.0613 28.5802 52.0705 28.6079 52.0879C28.6355 52.1052 28.6578 52.13 28.6722 52.1593L38.4423 72.2426C38.4552 72.2694 38.4611 72.299 38.4595 72.3287C38.4578 72.3585 38.4487 72.3873 38.4328 72.4125C38.4182 72.4362 38.398 72.456 38.374 72.4701C38.35 72.4843 38.3229 72.4924 38.2951 72.4937ZM10.3227 72.0726L38.0158 72.1425L28.4156 52.4104L0.458343 52.2575L10.3227 72.0726Z" fill="black"/>
<path d="M18.1066 60.2635C17.3028 60.1842 16.4235 60.3995 16.0952 61.1397C15.9468 61.5175 15.9171 61.9316 16.0102 62.3267C16.1032 62.7218 16.3146 63.0791 16.616 63.3508C16.9238 63.6137 17.2894 63.8 17.6829 63.8945C18.0764 63.989 18.4867 63.9891 18.8802 63.8946C19.3154 63.8184 19.706 63.5811 19.9745 63.23C20.1383 62.973 20.2236 62.6737 20.2198 62.3689C20.2293 61.3719 19.7764 60.4278 18.1066 60.2635Z" fill="white"/>
<path d="M18.2815 64.1359C17.6261 64.1455 16.9903 63.9121 16.4966 63.4807C16.1681 63.1838 15.938 62.7937 15.8369 62.3626C15.7357 61.9314 15.7684 61.4796 15.9305 61.0675C16.2494 60.3518 17.0626 59.9874 18.1193 60.0894C20.0061 60.2782 20.4004 61.4319 20.3929 62.3685C20.3989 62.7083 20.3037 63.0423 20.1193 63.3277C19.8263 63.716 19.3978 63.9796 18.9193 64.066C18.7098 64.1123 18.496 64.1357 18.2815 64.1359ZM17.8023 60.4236C17.3306 60.4236 16.5551 60.5331 16.2551 61.211C16.1213 61.5555 16.0959 61.9327 16.1823 62.2921C16.2686 62.6515 16.4625 62.9759 16.7381 63.222C17.0257 63.4667 17.3671 63.6398 17.7344 63.7271C18.1017 63.8144 18.4845 63.8135 18.8513 63.7242C19.2428 63.6572 19.595 63.4456 19.8382 63.1313C19.9811 62.9056 20.0558 62.6433 20.0533 62.376C20.0533 61.2072 19.4212 60.5765 18.0947 60.4463C18.0211 60.4312 17.9211 60.4236 17.8023 60.4236Z" fill="black"/>
<path d="M68.7724 65.5441C68.7357 65.5437 68.6999 65.5318 68.6702 65.5102C68.6404 65.4885 68.6181 65.4582 68.6064 65.4233C66.6347 59.447 65.5195 55.6649 65.5195 47.4699C65.524 47.4267 65.5444 47.3867 65.5766 47.3577C65.6088 47.3286 65.6507 47.3125 65.6941 47.3125C65.7375 47.3125 65.7793 47.3286 65.8116 47.3577C65.8438 47.3867 65.8641 47.4267 65.8686 47.4699C65.8686 55.612 66.9781 59.3658 68.9385 65.3138C68.9459 65.3355 68.9489 65.3584 68.9474 65.3813C68.9459 65.4041 68.9399 65.4265 68.9297 65.447C68.9196 65.4676 68.9054 65.4859 68.8881 65.5009C68.8709 65.516 68.8508 65.5274 68.8291 65.5347C68.8108 65.5407 68.7917 65.5439 68.7724 65.5441Z" fill="black"/>
<path d="M44.8029 61.1765C44.7747 61.1764 44.7469 61.1695 44.722 61.1563C44.697 61.1432 44.6756 61.1242 44.6595 61.101C42.1179 57.4416 42.8066 54.7622 43.4708 52.1696C43.8029 50.8724 44.1482 49.5261 44.0934 48.0627C44.0916 48.0392 44.0946 48.0155 44.1021 47.9932C44.1097 47.9708 44.1217 47.9502 44.1373 47.9326C44.153 47.915 44.1721 47.9007 44.1934 47.8906C44.2147 47.8805 44.2378 47.8748 44.2614 47.8739C44.285 47.8715 44.3088 47.8741 44.3314 47.8814C44.354 47.8888 44.3748 47.9007 44.3925 47.9165C44.4103 47.9323 44.4245 47.9516 44.4344 47.9732C44.4443 47.9948 44.4496 48.0182 44.4501 48.0419C44.5067 49.5525 44.1557 50.9272 43.8161 52.2489C43.1425 54.8811 42.4953 57.3661 44.9482 60.8933C44.9664 60.9196 44.9771 60.9503 44.9791 60.9823C44.9811 61.0142 44.9744 61.0461 44.9596 61.0744C44.9449 61.1028 44.9227 61.1266 44.8954 61.1433C44.8681 61.1599 44.8367 61.1688 44.8048 61.169L44.8029 61.1765Z" fill="black"/>
<path d="M53.0925 52.1784C50.5163 52.2049 47.9467 51.9145 45.4414 51.3135C45.4263 51.3095 45.4133 51.2998 45.4052 51.2864C45.3971 51.273 45.3945 51.257 45.398 51.2418C45.3997 51.2342 45.403 51.2271 45.4076 51.2208C45.4122 51.2145 45.4181 51.2093 45.4248 51.2054C45.4315 51.2015 45.439 51.199 45.4467 51.1981C45.4544 51.1973 45.4622 51.198 45.4697 51.2002C51.8151 52.792 58.6624 51.8328 64.7022 50.985C64.7177 50.9827 64.7335 50.9867 64.746 50.9961C64.7586 51.0055 64.7669 51.0195 64.7692 51.035C64.7714 51.0505 64.7674 51.0663 64.7581 51.0789C64.7487 51.0915 64.7347 51.0998 64.7192 51.1021C61.0436 51.6213 57.0718 52.1784 53.0925 52.1784Z" fill="black"/>
<path d="M55.4181 57.1295C51.6363 57.1313 47.8679 56.68 44.1933 55.7851C44.1783 55.7815 44.1654 55.7722 44.1573 55.7591C44.1491 55.746 44.1465 55.7303 44.1499 55.7152C44.1516 55.7076 44.1549 55.7004 44.1595 55.6941C44.1641 55.6878 44.1699 55.6824 44.1766 55.6784C44.1833 55.6743 44.1907 55.6717 44.1984 55.6705C44.2061 55.6694 44.214 55.6698 44.2216 55.6718C50.985 57.3165 58.0274 57.4506 64.8485 56.0646C64.856 56.0629 64.8639 56.0628 64.8715 56.0641C64.8791 56.0655 64.8864 56.0684 64.8929 56.0726C64.8994 56.0768 64.9049 56.0823 64.9093 56.0887C64.9137 56.0951 64.9167 56.1023 64.9183 56.1099C64.921 56.1252 64.9176 56.1409 64.9088 56.1536C64.8999 56.1664 64.8864 56.1751 64.8711 56.1779C61.7601 56.8122 58.593 57.131 55.4181 57.1295Z" fill="black"/>
<path d="M79.1795 67.1735C79.1712 67.1733 79.163 67.1714 79.1555 67.1678C79.148 67.1642 79.1414 67.1591 79.1361 67.1527C77.933 65.7643 76.3958 64.7062 74.6699 64.0784C72.9441 63.4505 71.0867 63.2739 69.2736 63.5651C69.2657 63.567 69.2576 63.5673 69.2496 63.5659C69.2417 63.5645 69.2341 63.5615 69.2274 63.5571C69.2207 63.5526 69.2149 63.5468 69.2106 63.54C69.2062 63.5333 69.2032 63.5257 69.2019 63.5177C69.2006 63.5097 69.201 63.5016 69.203 63.4938C69.205 63.486 69.2086 63.4786 69.2135 63.4723C69.2185 63.4659 69.2247 63.4606 69.2318 63.4568C69.2389 63.4529 69.2467 63.4506 69.2547 63.4499C71.0878 63.1561 72.9655 63.3352 74.7101 63.9703C76.4548 64.6053 78.0086 65.6754 79.2247 67.0791C79.2354 67.0903 79.2413 67.1052 79.2413 67.1206C79.2413 67.1361 79.2354 67.151 79.2247 67.1622C79.2184 67.1671 79.2111 67.1706 79.2033 67.1726C79.1955 67.1745 79.1874 67.1748 79.1795 67.1735Z" fill="black"/>
<path d="M78.748 64.6005C78.7405 64.6024 78.7328 64.6024 78.7253 64.6005C78.3545 64.4251 78.0168 64.1868 77.7272 63.8962C77.6215 63.8018 77.5121 63.7074 77.4027 63.613C76.728 63.06 75.9162 62.7005 75.0535 62.5726C75.0383 62.5703 75.0246 62.562 75.0155 62.5496C75.0063 62.5373 75.0023 62.5218 75.0045 62.5065C75.0073 62.4915 75.0156 62.4781 75.0279 62.469C75.0401 62.4598 75.0554 62.4557 75.0705 62.4574C75.9535 62.5895 76.7846 62.9574 77.4762 63.5224C77.5876 63.6149 77.697 63.7112 77.8046 63.8075C78.0842 64.0897 78.4104 64.3215 78.7687 64.4929C78.7759 64.4956 78.7825 64.4998 78.7881 64.505C78.7937 64.5103 78.7982 64.5166 78.8014 64.5236C78.8045 64.5307 78.8062 64.5382 78.8065 64.5459C78.8067 64.5536 78.8054 64.5613 78.8027 64.5685C78.7976 64.5785 78.7898 64.5869 78.7801 64.5926C78.7704 64.5983 78.7592 64.601 78.748 64.6005Z" fill="black"/>
</g>
<defs>
<clipPath id="clip0_6263_82315">
<rect width="80" height="74" fill="white"/>
</clipPath>
</defs>
</svg>
