<svg
    width="2367"
    height="2000"
    viewBox="0 0 2367 2000"
    fill="none"
    xmlns="http://www.w3.org/2000/svg"
  >
    <path
      d="M61.4787 782.4H216.519C236.012 782.4 250.292 784.893 259.359 789.88C268.879 794.413 274.999 801.667 277.719 811.64C280.892 821.16 282.479 833.173 282.479 847.68V953.76C282.479 970.08 281.119 985.493 278.399 1000C275.679 1014.05 268.652 1025.61 257.319 1034.68C245.985 1043.29 227.399 1047.6 201.559 1047.6H135.599V1204H61.4787V782.4ZM177.079 989.8C188.412 989.8 196.572 986.627 201.559 980.28C206.545 973.933 209.039 963.507 209.039 949V882.36C209.039 864.227 206.999 852.667 202.919 847.68C199.292 842.693 191.812 840.2 180.479 840.2H135.599V989.8H177.079ZM422.447 1207.4C402.047 1207.4 383.687 1205.36 367.367 1201.28C351.047 1197.2 338.127 1190.63 328.607 1181.56C319.541 1172.04 315.007 1159.35 315.007 1143.48V782.4H389.127V1120.36C389.127 1125.35 390.034 1130.11 391.847 1134.64C393.661 1139.17 397.061 1142.8 402.047 1145.52C407.034 1148.24 413.834 1149.6 422.447 1149.6C431.967 1149.6 439.221 1148.24 444.207 1145.52C449.194 1142.8 452.594 1139.17 454.407 1134.64C456.221 1129.65 457.127 1124.89 457.127 1120.36V782.4H531.247V1143.48C531.247 1159.35 526.487 1172.04 516.967 1181.56C507.901 1190.63 494.981 1197.2 478.207 1201.28C461.887 1205.36 443.301 1207.4 422.447 1207.4ZM575.304 782.4H649.424V1146.2H771.824V1204H575.304V782.4ZM907.749 1208.76C887.803 1208.76 868.989 1207.4 851.309 1204.68C834.083 1201.96 820.256 1196.75 809.829 1189.04C799.856 1180.88 794.869 1169.32 794.869 1154.36V1059.16L868.309 1051V1123.76C868.309 1131.92 870.576 1138.49 875.109 1143.48C880.096 1148.01 889.616 1150.28 903.669 1150.28C912.736 1150.28 919.763 1149.15 924.749 1146.88C929.736 1144.16 933.136 1140.53 934.949 1136C936.763 1131.47 937.669 1125.8 937.669 1119V1073.44C937.669 1061.2 934.723 1050.32 928.829 1040.8C923.389 1031.28 913.189 1024.25 898.229 1019.72L851.309 1005.44C831.363 999.093 816.856 990.933 807.789 980.96C799.176 970.987 794.869 955.347 794.869 934.04V845.64C794.869 825.693 799.856 810.96 809.829 801.44C819.803 791.92 833.403 785.8 850.629 783.08C867.856 779.907 886.669 778.32 907.069 778.32C926.563 778.32 944.016 779.907 959.429 783.08C975.296 786.253 987.763 791.92 996.829 800.08C1006.35 807.787 1011.11 818.667 1011.11 832.72V927.92L937.669 938.12V869.44C937.669 855.387 935.176 846.32 930.189 842.24C925.656 837.707 917.043 835.44 904.349 835.44C891.203 835.44 881.909 838.16 876.469 843.6C871.029 848.587 868.309 858.787 868.309 874.2V913.64C868.309 924.067 870.576 933.813 875.109 942.88C880.096 951.493 888.029 957.613 898.909 961.24L951.269 977.56C972.576 984.36 987.763 992.973 996.829 1003.4C1006.35 1013.37 1011.11 1029.01 1011.11 1050.32V1139.4C1011.11 1158.89 1006.58 1173.63 997.509 1183.6C988.443 1193.57 975.976 1200.37 960.109 1204C944.696 1207.17 927.243 1208.76 907.749 1208.76ZM1051.94 782.4H1260.02V840.2H1126.06V943.56H1245.74L1236.22 1001.36H1126.06V1146.2H1260.02V1204H1051.94V782.4ZM1360.85 1204L1276.53 782.4H1350.65L1397.57 1054.4L1398.25 1068.68H1398.93V1054.4L1441.77 801.44H1497.53L1538.33 1054.4L1539.01 1068.68H1539.69L1540.37 1054.4L1583.21 782.4H1660.05L1577.09 1204H1507.05L1471.69 972.8L1471.01 959.2H1470.33L1469.65 972.8L1430.89 1204H1360.85ZM1619.76 1204L1707.48 782.4H1789.08L1876.12 1204H1799.28L1781.6 1112.88L1793.84 1124.44H1700L1710.2 1112.88L1694.56 1204H1619.76ZM1712.92 1074.12L1706.12 1065.96H1789.76L1780.24 1074.12L1751 881.68L1750.32 868.76H1744.88L1744.2 881.68L1712.92 1074.12ZM1922.49 1204L1834.77 782.4H1908.21L1959.21 1091.8L1959.89 1106.08H1960.57V1091.8L2008.17 782.4H2085.01L1997.29 1204H1922.49ZM2108.81 782.4H2316.89V840.2H2182.93V943.56H2302.61L2293.09 1001.36H2182.93V1146.2H2316.89V1204H2108.81V782.4Z"
      fill="#424242"
    />
    <path
      fill-rule="evenodd"
      clip-rule="evenodd"
      d="M1183.52 2000C1650.92 2000 2043.42 1679.33 2153.03 1246H1917.23C1814.6 1552.85 1524.88 1774 1183.5 1774C842.123 1774 552.396 1552.85 449.771 1246H214C323.613 1679.33 716.117 2000 1183.52 2000ZM450.443 753H214.254C324.217 320.172 716.477 0 1183.52 0C1650.56 0 2042.81 320.172 2152.78 753H1916.56C1813.34 447.189 1524.13 227 1183.5 227C842.865 227 553.656 447.189 450.443 753Z"
      fill="#424242"
    />
    <path
      fill-rule="evenodd"
      clip-rule="evenodd"
      d="M1628.73 1228H738.512C821.404 1389.5 989.607 1500 1183.62 1500C1377.63 1500 1545.84 1389.5 1628.73 1228ZM1629.24 773H738C820.709 610.958 989.207 500 1183.62 500C1378.04 500 1546.53 610.958 1629.24 773Z"
      fill="#424242"
    />
  </svg>